<?xml version="1.0" encoding="UTF-8"?><svg id="Layer_2" xmlns="http://www.w3.org/2000/svg" viewBox="0 0 46.48 46.2"><defs><style>.cls-1{fill:#eee;stroke-width:0px;}</style></defs><g id="Layer_4"><path class="cls-1" d="m46.48,6.88v32.43c-.58.68-1.03,1.62-1.76,2.01-3.07,1.61-6.21,3.06-9.34,4.54-1.23.58-2.4.42-3.43-.52-3.98-3.64-7.97-7.28-11.96-10.92-2.1-1.92-4.2-3.83-6.32-5.76-.3.21-.52.36-.74.53-2.33,1.76-4.65,3.54-6.98,5.29-.97.73-1.9.83-2.64.17C2.16,33.64,1.1,32.53,0,31.46c0-.41,0-.83,0-1.24.79-.8,1.56-1.61,2.38-2.38,1.7-1.58,3.42-3.14,5.18-4.75-1.26-1.15-2.44-2.19-3.59-3.28C2.63,18.55,1.32,17.25,0,15.97c0-.41,0-.83,0-1.24.97-.95,1.93-1.92,2.92-2.86,1.05-.98,1.87-1.02,3.02-.16,1.84,1.38,3.67,2.79,5.5,4.18.73.55,1.47,1.1,2.2,1.64.24-.2.4-.33.55-.47,5.82-5.31,11.64-10.61,17.45-15.92,1.41-1.29,2.37-1.46,4.1-.63,2.78,1.33,5.54,2.72,8.35,4,1.13.51,1.94,1.23,2.39,2.38Zm-25.54,16.22c4.66,3.53,9.23,7,13.89,10.54V12.55c-4.66,3.54-9.19,6.98-13.89,10.54Z"/></g></svg>