<svg version="1.1" id="Layer_1" xmlns="http://www.w3.org/2000/svg" x="0" y="0" viewBox="0 0 76 66.2" style="enable-background:new 0 0 76 66.2" xml:space="preserve"><style>.st0{fill:#3c61aa}</style><path transform="rotate(-60.002 7.002 50.977)" class="st0" d="M5.1 49.1h3.8v3.8H5.1z"/><path class="st0" d="M44 54.3c-.4.6-.8 1.2-1.3 1.6-.4.4-.9.7-1.4 1-.6.3-1.2.6-1.8.7-.6.2-1.2.2-1.8.2-1.3 0-2.5-.3-3.6-1-1.1-.6-2-1.6-2.7-2.7h-4.1v.1c.5 1.4 1.2 2.6 2.2 3.7l.9.9c1.1 1 2.3 1.7 3.7 2.2 1.2.4 2.4.6 3.7.6 1.3 0 2.5-.2 3.7-.6.2-.1.3-.1.5-.2 1.2-.5 2.3-1.2 3.2-2l.9-.9c.6-.6 1-1.3 1.4-2 .3-.5.5-1.1.8-1.7v-.1l-4.3.2zM30.1 21c.3 1.2.8 2.4 1.4 3.4 0 .1.1.2.1.2.5.8 1.1 1.6 1.7 2.4.1.2.3.3.5.5.3.3.6.5.8.8.7.6 1.5 1.2 2.4 1.7.8-.5 1.6-1.1 2.4-1.7.3-.3.6-.5.8-.8l.5-.5c.6-.7 1.2-1.5 1.7-2.4 0-.1.1-.2.1-.2.6-1.1 1.1-2.2 1.4-3.5.3-1.2.5-2.4.5-3.6 0-1.2-.2-2.5-.5-3.6-.3-1.2-.8-2.4-1.4-3.5 0-.1-.1-.2-.1-.2-.5-.8-1.1-1.6-1.7-2.4-.2-.2-.3-.4-.5-.5-.3-.3-.6-.5-.8-.8-.7-.7-1.5-1.3-2.4-1.7-.8.5-1.6 1.1-2.4 1.7-.3.3-.6.5-.8.8l-.5.5c-.6.7-1.2 1.5-1.7 2.4 0 .1-.1.2-.1.2-.6 1.1-1.1 2.3-1.4 3.5-.3 1.2-.5 2.4-.5 3.6 0 1.3.2 2.5.5 3.7zm3.3-3.7c0-1.3.2-2.5.6-3.6.2-.6.5-1.1.7-1.7.4-.7.9-1.4 1.4-2 .3-.3.5-.6.8-.8.3.3.6.5.8.8.5.6 1 1.3 1.4 2 .3.5.5 1.1.7 1.7.4 1.2.6 2.4.6 3.6 0 1.3-.2 2.5-.6 3.7-.2.6-.4 1.1-.7 1.7-.4.7-.9 1.4-1.4 2-.3.3-.5.6-.8.8-.3-.3-.6-.5-.8-.8-.5-.6-1-1.3-1.4-2-.3-.5-.5-1.1-.7-1.7-.4-1.2-.6-2.4-.6-3.7zM53.2 32.3h.2c1.2 0 2.5-.2 3.7-.5 1.2-.3 2.3-.8 3.4-1.4 1.1-.6 2.1-1.4 2.9-2.2.9-.9 1.7-1.9 2.3-2.9 0-.1.1-.2.1-.2.5-.8.9-1.7 1.2-2.7.1-.2.1-.4.2-.7.1-.4.2-.8.3-1.1.2-1 .3-1.9.3-2.9-.8-.5-1.7-.9-2.7-1.2-.4-.1-.7-.2-1.1-.3-.2-.1-.4-.1-.7-.1-1-.2-1.9-.3-2.9-.3h-.3c-1.2 0-2.5.2-3.7.5-1.2.3-2.3.8-3.4 1.4-1.1.6-2.1 1.4-2.9 2.2-.9.9-1.7 1.8-2.3 2.9 0 .1-.1.2-.1.2-.5.8-.9 1.7-1.2 2.7-.1.2-.1.4-.2.7-.1.4-.2.8-.3 1.1-.2 1-.3 1.9-.3 2.9.8.5 1.7.9 2.7 1.2.4.1.7.2 1.1.3.2.1.5.1.7.1 1 .2 1.9.3 2.9.3h.1zm-2.3-4c-.4-.1-.8-.2-1.1-.3.1-.4.2-.8.3-1.1.3-.8.6-1.5 1-2.2.3-.5.7-1 1.1-1.5.8-.9 1.8-1.7 2.8-2.4 1.1-.6 2.3-1.1 3.5-1.3.6-.1 1.2-.2 1.8-.2.8 0 1.6.1 2.4.2.4.1.8.2 1.1.3-.1.4-.2.8-.3 1.1-.3.8-.6 1.5-1 2.2-.3.5-.7 1-1.1 1.5-.8.9-1.8 1.7-2.8 2.4-1.1.6-2.3 1.1-3.5 1.3-.6.1-1.2.2-1.8.2-.8 0-1.6-.1-2.4-.2zM29.7 30.3c0-1-.1-2-.3-2.9-.1-.4-.2-.8-.3-1.1 0-.3-.1-.5-.1-.7-.3-.9-.7-1.8-1.2-2.7 0-.1-.1-.2-.1-.2-.6-1.1-1.4-2.1-2.3-2.9-.9-.9-1.9-1.6-2.9-2.2-1.1-.6-2.2-1.1-3.4-1.4-1.2-.3-2.4-.5-3.7-.5H15.1c-1 0-1.9.1-2.9.3-.2 0-.4.1-.7.1-.4.1-.8.2-1.1.3-.9.3-1.8.7-2.7 1.2 0 1 .1 2 .3 2.9.1.4.2.8.3 1.1.1.2.1.4.2.7.3.9.7 1.8 1.2 2.7 0 .1.1.2.1.2.6 1.1 1.4 2 2.3 2.9.9.9 1.9 1.6 2.9 2.2 1.1.6 2.2 1.1 3.4 1.4 1.2.3 2.4.5 3.7.5H22.4c1 0 1.9-.1 2.9-.3.3-.1.5-.1.7-.1.4-.1.8-.2 1.1-.3.9-.3 1.8-.7 2.6-1.2zm-4-2.3c-.4.1-.8.2-1.1.3-.8.2-1.6.2-2.4.2-.6 0-1.2-.1-1.8-.2-1.2-.2-2.4-.7-3.5-1.3-1.1-.6-2-1.4-2.8-2.4-.4-.4-.7-.9-1.1-1.5-.4-.7-.8-1.5-1-2.2-.1-.4-.2-.8-.3-1.1.4-.1.8-.2 1.1-.3.7-.2 1.5-.2 2.3-.2h.2c.6 0 1.2.1 1.8.2 1.2.2 2.4.7 3.5 1.3 1.1.6 2 1.4 2.8 2.4.4.5.8 1 1.1 1.5.4.7.8 1.5 1 2.2 0 .3.1.7.2 1.1zM12.1 50.6h3.8v3.8h-3.8z"/><path transform="rotate(-30 20.946 50.982)" class="st0" d="M19.1 49.1h3.8v3.8h-3.8z"/><path class="st0" d="M21.2 37.3c0 1.3-.3 2.5-1 3.6-.3.6-.8 1.2-1.3 1.6-.4.4-.9.7-1.4 1-.6.3-1.2.6-1.8.7-.6.2-1.2.2-1.8.2-1.3 0-2.5-.3-3.6-1-1.1-.6-2-1.6-2.7-2.7-.6-1.1-1-2.3-1-3.6V37H3v.1c0 1.3.2 2.5.6 3.7.5 1.4 1.2 2.6 2.2 3.7l.9.9c1.1 1 2.3 1.7 3.7 2.2 1.2.4 2.4.6 3.7.6 1.3 0 2.5-.2 3.7-.6.2-.1.3-.1.5-.2 1.2-.5 2.3-1.1 3.2-2l.9-.9c.5-.6 1-1.3 1.4-2 .3-.5.5-1.1.7-1.7.4-1.2.6-2.4.6-3.7V37l-3.9.3zM60.1 50.6h3.8v3.8h-3.8z"/><path transform="rotate(-60 55.03 50.982)" class="st0" d="M53.1 49.1h3.8v3.8h-3.8z"/><path transform="rotate(-30 68.976 50.984)" class="st0" d="M67.1 49.1h3.8v3.8h-3.8z"/><path class="st0" d="M69.2 37.2c0 1.3-.3 2.6-1 3.7-.3.6-.8 1.2-1.3 1.6-.4.4-.9.7-1.4 1-.6.3-1.2.6-1.8.7-.6.2-1.2.2-1.8.2-1.3 0-2.5-.3-3.6-1-1.1-.6-2-1.6-2.7-2.7-.6-1.1-1-2.3-1-3.6V37H51v.1c0 1.3.2 2.5.6 3.7.5 1.4 1.2 2.6 2.2 3.7l.9.9c1.1 1 2.3 1.7 3.7 2.2 1.2.4 2.4.6 3.7.6 1.3 0 2.5-.2 3.7-.6.2-.1.3-.1.5-.2 1.2-.5 2.3-1.1 3.2-2l.9-.9c.5-.6 1-1.3 1.4-2 .3-.5.5-1.1.7-1.7.4-1.2.6-2.4.6-3.7V37h-3.9zM32.2 37.2v11.1h11.1V37.2h-3.8v7.3H36v-7.3z"/></svg>