<?xml version="1.0" encoding="UTF-8"?><svg id="Layer_2" xmlns="http://www.w3.org/2000/svg" viewBox="0 0 46.5 46.5"><defs><style>.cls-1{fill:#eee;stroke-width:0px;}</style></defs><g id="Layer_4"><path class="cls-1" d="m0,39.05C0,26.03,0,13.02,0,0c12.64,0,25.27,0,37.91.01.85,0,1.73.1,2.55.33,3.65,1.02,6.04,4.26,6.04,8.11,0,12.68,0,25.36,0,38.04H7.45c-.08-.03-.16-.07-.25-.08-3.45-.6-5.74-2.55-6.84-5.88-.16-.48-.24-.99-.36-1.48Zm44.39,5.34v-.51c0-11.77,0-23.55,0-35.32,0-3.74-2.71-6.45-6.44-6.45-11.77,0-23.55,0-35.32,0-.16,0-.32,0-.52,0,0,.21,0,.36,0,.51,0,11.79,0,23.58,0,35.37,0,.45.03.91.12,1.35.62,3.05,3.12,5.05,6.31,5.05,11.76,0,23.52,0,35.28,0h.57Z"/><path class="cls-1" d="m27.89,31.63c-1.05,0-2.03.01-3.01-.02-.11,0-.25-.23-.31-.38-.42-1.17-.83-2.33-1.21-3.51-.11-.32-.24-.45-.6-.45-1.56.02-3.12.02-4.68,0-.32,0-.45.11-.54.4-.38,1.19-.79,2.38-1.17,3.57-.09.28-.22.39-.51.38-.81-.02-1.63,0-2.52,0,.07-.23.1-.4.16-.56,1.57-4.48,3.14-8.95,4.69-13.43.17-.48.25-.99.33-1.5.04-.26.13-.33.37-.33,1.01,0,2.03.02,3.04,0,.35,0,.42.2.51.45,1.23,3.47,2.47,6.94,3.71,10.42.53,1.48,1.05,2.96,1.58,4.44.05.14.09.28.17.52Zm-7.48-13.33c-.71,2.25-1.39,4.44-2.08,6.64h4.23c-.72-2.22-1.42-4.4-2.15-6.64Z"/><path class="cls-1" d="m33.05,25.85c0,1.77,0,3.54,0,5.31,0,.36-.1.48-.46.47-.73-.02-1.45-.02-2.18,0-.3,0-.39-.11-.39-.4,0-3.6,0-7.2,0-10.8,0-.27.09-.38.37-.37.74.01,1.48.02,2.22,0,.34,0,.44.1.44.44-.01,1.78,0,3.57,0,5.35Z"/><path class="cls-1" d="m31.59,15.55c.94,0,1.57.64,1.57,1.6,0,.94-.68,1.66-1.6,1.67-.89,0-1.65-.74-1.66-1.63,0-.92.73-1.64,1.68-1.64Z"/></g></svg>