<?xml version="1.0" encoding="UTF-8"?><svg id="Layer_2" xmlns="http://www.w3.org/2000/svg" viewBox="0 0 46.51 46.51"><defs><style>.cls-1{fill:#eee;stroke-width:0px;}</style></defs><g id="Layer_4"><path class="cls-1" d="m46.51,7.45v39.06H7.46c-.05-.02-.1-.07-.16-.07C3.31,45.97-.02,42.48,0,37.88.05,25.45.02,13.02.02.6c0-.19,0-.38,0-.58C.17.01.26,0,.34,0c12.67,0,25.33,0,38,0,3.58,0,6.79,2.47,7.81,5.91.15.5.24,1.02.36,1.53ZM2.12,2.11c0,.21,0,.36,0,.5,0,11.81,0,23.61,0,35.42,0,.44.03.88.12,1.31.62,3.05,3.12,5.06,6.31,5.06,11.77,0,23.55,0,35.32,0h.53v-.5c0-11.79,0-23.58,0-35.38,0-.45-.03-.91-.12-1.35-.61-3.05-3.12-5.06-6.31-5.06-11.77,0-23.55,0-35.32,0h-.53Z"/><path class="cls-1" d="m16.13,25.74c0,1.58,0,3.08,0,4.57,0,1.04.13.91-.92.92-.54,0-1.09-.01-1.63,0-.32,0-.46-.09-.46-.44,0-5.01,0-10.02,0-15.03,0-.31.1-.42.42-.42,1.68,0,3.36-.04,5.04,0,.76.02,1.54.16,2.27.38,2.19.67,3.54,2.71,3.39,5-.18,2.51-1.5,4.05-4.17,4.68-.93.22-1.91.23-2.87.32-.33.03-.66,0-1.05,0Zm.03-8.2v5.87c1.09.17,2.44.1,3.21-.17,1.32-.45,1.95-1.43,1.87-2.91-.07-1.4-.8-2.37-2.14-2.6-.95-.17-1.94-.14-2.95-.2Z"/><path class="cls-1" d="m26.44,19.62c.85,0,1.65-.01,2.45.01.11,0,.27.18.31.31.11.37.18.76.37,1.26.06-.11.1-.24.19-.33.87-.93,1.94-1.42,3.21-1.46.31-.01.48.05.46.42-.02.65-.02,1.3,0,1.95.01.35-.13.44-.46.43-1.09-.03-2.09.22-2.95.94-.34.28-.45.61-.45,1.03.01,2.16,0,4.33.01,6.49,0,.41-.11.56-.53.54-.66-.03-1.33-.03-2,0-.41.02-.51-.14-.51-.53.01-3.01,0-6.02,0-9.03,0-.65-.06-1.3-.09-2.02Z"/></g></svg>