<?xml version="1.0" encoding="UTF-8"?><svg id="Layer_2" xmlns="http://www.w3.org/2000/svg" viewBox="0 0 46.5 46.5"><defs><style>.cls-1{fill:#eee;stroke-width:0px;}</style></defs><g id="Layer_4"><path class="cls-1" d="m46.5,46.5H7.45c-.08-.03-.16-.07-.25-.08-3.45-.6-5.74-2.55-6.84-5.88-.16-.48-.24-.99-.36-1.48C0,26.03,0,13.02,0,0c12.64,0,25.27,0,37.91.01.85,0,1.73.1,2.55.33,3.65,1.02,6.04,4.26,6.04,8.11,0,12.68,0,25.36,0,38.04ZM2.11,2.11c0,.22,0,.35,0,.49,0,11.8,0,23.61,0,35.41,0,3.66,2.73,6.38,6.41,6.39,11.79,0,23.58,0,35.37,0,.16,0,.32-.02.5-.02,0-.19,0-.33,0-.46,0-11.8,0-23.61,0-35.41,0-.44-.03-.88-.12-1.31-.61-3.07-3.12-5.08-6.34-5.08-11.76,0-23.52,0-35.28,0-.16,0-.33,0-.55,0Z"/><path class="cls-1" d="m28.53,20.02c0-1.08,0-2.12,0-3.16,0-.6.02-1.21,0-1.81-.02-.41.14-.52.52-.51.66.03,1.33.04,2,0,.44-.03.52.15.52.55-.01,4.11-.01,8.23,0,12.34,0,1.01.04,2.03.04,3.04,0,.15-.09.37-.21.43-2.19,1.01-4.48,1.39-6.84.76-2.34-.63-3.6-2.23-3.91-4.63-.36-2.76.85-5.25,3.21-6.4,1.3-.63,2.68-.81,4.11-.66.17.02.33.04.56.07Zm0,5.84c0-1.09,0-2.18,0-3.26,0-.22-.03-.37-.27-.44-1.58-.48-3.56.06-4.27,1.91-.32.82-.35,1.68-.26,2.55.27,2.63,2.38,3.47,4.41,2.99.3-.07.41-.21.4-.53-.02-1.07,0-2.15,0-3.22Z"/><path class="cls-1" d="m17.89,23.84c0,2.45,0,4.9,0,7.35,0,.39-.09.54-.51.52-.69-.03-1.39-.02-2.09,0-.3,0-.44-.06-.44-.4,0-5.02,0-10.04,0-15.06,0-.27.08-.38.36-.37.74.01,1.48.03,2.22,0,.4-.02.44.16.44.49,0,2.49,0,4.99,0,7.48Z"/></g></svg>