<?xml version="1.0" encoding="UTF-8"?><svg id="Layer_2" xmlns="http://www.w3.org/2000/svg" viewBox="0 0 46.5 46.5"><defs><style>.cls-1{fill:#eee;stroke-width:0px;}</style></defs><g id="Layer_4"><path class="cls-1" d="m46.5,7.45v39.05c-12.62,0-25.24,0-37.86,0-.59,0-1.19-.02-1.76-.13C2.79,45.58,0,42.21,0,38.04,0,25.36,0,12.68,0,0c13.02,0,26.03,0,39.05,0,.08.03.16.07.25.08,3.48.6,5.76,2.58,6.85,5.93.15.47.23.96.34,1.44ZM2.11,2.11c0,.21,0,.35,0,.48,0,11.8,0,23.61,0,35.41,0,3.67,2.73,6.39,6.41,6.39,11.79,0,23.58,0,35.37,0,.16,0,.32-.01.5-.02,0-.19,0-.32,0-.46,0-11.8,0-23.61,0-35.41,0-.44-.03-.88-.12-1.31-.61-3.07-3.12-5.08-6.34-5.08-11.76,0-23.52,0-35.28,0-.16,0-.33,0-.55,0Z"/><path class="cls-1" d="m10.19,15c1.15,0,2.2-.01,3.25.02.16,0,.35.19.46.35,1.19,1.75,2.36,3.51,3.54,5.26.1.14.2.29.34.48.12-.18.22-.32.32-.46,1.17-1.76,2.35-3.51,3.51-5.28.18-.27.37-.39.7-.38.96.02,1.93,0,3,0-.15.22-.24.36-.33.5-1.74,2.48-3.48,4.97-5.24,7.44-.22.31-.24.52,0,.84,1.7,2.39,3.38,4.8,5.06,7.21.1.14.19.29.34.51-1.15,0-2.22.01-3.29-.01-.13,0-.28-.18-.37-.32-1.12-1.68-2.23-3.36-3.34-5.04-.1-.15-.2-.29-.34-.5-.12.17-.22.3-.31.43-1.13,1.69-2.26,3.38-3.37,5.08-.18.28-.37.38-.7.37-.98-.02-1.96,0-3.01,0,.13-.21.22-.36.32-.49,1.69-2.42,3.38-4.84,5.09-7.25.22-.3.2-.49,0-.79-1.77-2.49-3.51-4.99-5.27-7.48-.09-.13-.17-.26-.32-.48Z"/><path class="cls-1" d="m33.24,20.02c0-1.58,0-3.13,0-4.67,0-.89-.11-.81.79-.81.59,0,1.18.02,1.77,0,.35-.02.48.1.47.46-.02,1-.01,2,0,2.99.02,4.16.04,8.32.05,12.48,0,.14-.1.37-.21.42-2.19,1.01-4.48,1.39-6.84.75-2.32-.63-3.58-2.21-3.9-4.59-.36-2.74.79-5.19,3.08-6.38,1.33-.68,2.75-.87,4.23-.72.17.02.33.04.56.07Zm0,5.81c0-1.07,0-2.15,0-3.22,0-.23-.04-.38-.29-.47-1.8-.63-3.86.36-4.32,2.21-.2.8-.22,1.68-.13,2.51.23,2.23,2.18,3.25,4.33,2.75.32-.07.43-.22.42-.56-.02-1.07,0-2.15,0-3.22Z"/></g></svg>