<?xml version="1.0" encoding="UTF-8"?><svg id="Layer_2" xmlns="http://www.w3.org/2000/svg" viewBox="0 0 46.5 46.5"><defs><style>.cls-1{fill:#eee;stroke-width:0px;}</style></defs><g id="Layer_4"><path class="cls-1" d="m0,39.05C0,26.03,0,13.02,0,0c12.64,0,25.27,0,37.91.01.85,0,1.73.1,2.55.33,3.65,1.02,6.04,4.26,6.04,8.11,0,12.68,0,25.36,0,38.04H7.45c-.08-.03-.16-.07-.25-.08-3.45-.6-5.74-2.55-6.84-5.88-.16-.48-.24-.99-.36-1.48Zm44.39,5.34v-.51c0-11.77,0-23.55,0-35.32,0-3.74-2.71-6.45-6.44-6.45-11.77,0-23.55,0-35.32,0-.16,0-.32,0-.52,0,0,.21,0,.36,0,.51,0,11.79,0,23.58,0,35.37,0,.45.03.91.12,1.35.62,3.05,3.12,5.05,6.31,5.05,11.76,0,23.52,0,35.28,0h.57Z"/><path class="cls-1" d="m15.76,25.61c0,1.63,0,3.21,0,4.78q0,.69-.68.69c-.61,0-1.21-.02-1.81,0-.41.02-.54-.1-.54-.53.02-3.55,0-7.11,0-10.66,0-1.41,0-2.81,0-4.22,0-.26.03-.43.36-.43,1.9.02,3.81-.06,5.71.04,2.15.12,3.88,1.05,4.71,3.18,1.13,2.9-.27,5.69-3.29,6.7-1.23.41-2.49.47-3.76.45-.21,0-.42,0-.7,0Zm0-2.25c.63,0,1.19.01,1.74,0,.35-.01.7-.04,1.03-.11,1.54-.31,2.31-1.25,2.34-2.78.03-1.53-.7-2.58-2.16-2.86-.88-.17-1.8-.12-2.7-.14-.08,0-.23.24-.24.37-.02.83-.01,1.66-.01,2.49,0,.98,0,1.96,0,3.03Z"/><path class="cls-1" d="m33.06,22.2c-.75-.26-1.43-.57-2.14-.7-.56-.1-1.17-.03-1.74.06-.38.06-.66.36-.71.79-.04.42.14.75.49.95.42.24.86.44,1.29.66.67.34,1.39.61,2.02,1.02,2.09,1.37,2.01,4.32-.14,5.62-.99.6-2.1.74-3.23.7-1.02-.03-2.02-.18-2.93-.68-.16-.09-.31-.33-.32-.51-.04-.7-.01-1.41-.01-2.23.23.14.35.21.46.29.94.64,1.99.94,3.12.93.3,0,.61-.06.88-.16.85-.32.98-1.27.24-1.82-.34-.25-.73-.42-1.11-.61-.63-.31-1.3-.57-1.91-.93-1.29-.75-1.83-1.91-1.6-3.37.22-1.43,1.13-2.32,2.5-2.69,1.46-.4,2.93-.31,4.38.14.33.1.49.28.47.65-.03.63,0,1.27,0,1.89Z"/></g></svg>