<?xml version="1.0" encoding="UTF-8"?><svg id="Layer_2" xmlns="http://www.w3.org/2000/svg" viewBox="0 0 46.51 46.51"><defs><style>.cls-1{fill:#eee;stroke-width:0px;}</style></defs><g id="Layer_4"><path class="cls-1" d="m46.51,7.45v39.06H7.46c-.05-.02-.1-.07-.16-.07C3.31,45.97-.02,42.48,0,37.88.05,25.45.02,13.02.02.6c0-.19,0-.38,0-.58C.17.01.26,0,.34,0c12.67,0,25.33,0,38,0,3.58,0,6.79,2.47,7.81,5.91.15.5.24,1.02.36,1.53ZM2.12,2.11c0,.21,0,.35,0,.5,0,11.81,0,23.61,0,35.42,0,.44.03.88.12,1.31.62,3.05,3.12,5.06,6.31,5.06,11.77,0,23.55,0,35.32,0h.53v-.5c0-11.79,0-23.58,0-35.38,0-.45-.03-.91-.12-1.35-.61-3.05-3.12-5.06-6.31-5.06-11.77,0-23.55,0-35.32,0h-.53Z"/><path class="cls-1" d="m24.62,31.02c-.18.02-.3.04-.43.04-.77,0-1.54-.01-2.32,0-.31,0-.46-.11-.56-.4-.4-1.2-.83-2.4-1.23-3.6-.09-.27-.21-.37-.51-.37-1.59.02-3.18.02-4.77,0-.3,0-.42.1-.51.37-.39,1.21-.8,2.41-1.19,3.62-.09.28-.23.38-.52.38-.67-.02-1.33,0-2,0-.54,0-.55-.02-.37-.54,1.39-3.98,2.8-7.95,4.18-11.94.35-1.02.86-2.01.89-3.13,0-.08.2-.21.31-.21,1.04-.02,2.09,0,3.13-.01.34,0,.38.23.46.46,1.51,4.24,3.02,8.48,4.52,12.73.25.71.51,1.42.76,2.14.05.14.08.28.14.47Zm-7.45-13.3c-.71,2.25-1.39,4.43-2.09,6.64h4.23c-.72-2.23-1.42-4.4-2.15-6.64Z"/><path class="cls-1" d="m35.52,28.45c0,.61.02,1.22-.01,1.82,0,.14-.16.33-.29.38-2.13.81-4.27.93-6.41.04-1.18-.49-1.96-1.42-2.42-2.58-.78-1.98-.78-3.96.19-5.89,1.19-2.37,3.26-3.14,5.63-2.94,3.17.27,4.45,3.14,4.19,5.6-.09.86-.09.88-.97.89-1.98.03-3.96.02-5.95.03-.18,0-.36,0-.53,0-.17,1.26.73,2.61,2.01,2.98,1.37.4,2.72.25,4.05-.23.11-.04.23-.08.34-.12.03,0,.06,0,.17.01Zm-6.59-4.48c.42,0,.84,0,1.26,0,.98,0,1.96,0,2.95-.01.24,0,.42-.03.43-.37.05-1.62-1.25-2.67-2.82-2.26-1.03.27-1.76,1.31-1.82,2.64Z"/></g></svg>