<?xml version="1.0" encoding="UTF-8"?><svg id="Layer_2" xmlns="http://www.w3.org/2000/svg" viewBox="0 0 530.37 576.71"><defs><style>.cls-1{fill:#c60f01;stroke-width:0px;}</style></defs><g id="Layer_4"><path class="cls-1" d="m188.71,206.82c1.43,2.74,4.2,3.4,7.09,4.26-2.96.89-4.66.46-6.13-1.42-1.67-2.13-3.33-4.27-4.98-6.41-2.51-3.26-3.28-7.04-2.61-10.97.62-3.59.28-7.04-.23-10.57-.63-4.33-1.05-8.69-1.58-13.2-.3.06-.72.04-1.05.21-3.14,1.64-6.24,3.34-9.39,4.96-5.03,2.6-10.27,3.25-15.76,1.6-1.45-.44-2.95-.7-4.55-1.06,1.07,3.75,2.15,7.1,2.97,10.51.47,1.99.5,4.09.77,6.14.19,1.44.26,2.93.7,4.29,2.22,6.86,4.77,13.63,8.48,19.82,7.03,11.75,14.7,23.06,24.74,32.53,4.53,4.28,9.14,8.48,13.8,12.63,1.31,1.17,2.83,2.15,4.37,3.01,5.72,3.23,11.49,6.37,17.23,9.55,4.32,2.39,9,2.98,13.88,3.15,6.53.23,11.92-2.04,16.81-6.22,5.71-4.88,11.74-9.38,17.44-14.28,4.66-4.01,9.06-8.33,13.53-12.56,1.9-1.79,3.69-3.69,5.54-5.53,4.9-4.83,8.47-10.55,11.19-16.82.32-.74.11-1.78-.05-2.64-.4-2.26-1.1-4.48-1.29-6.74-.15-1.71.26-3.48.47-5.22.4-3.2.92-6.39,1.25-9.6.17-1.67-.69-2.93-2.04-3.98-2.59-2-4.57-4.53-6.09-7.46-3.49-6.74-2.76-13.24.83-19.69,2.45-4.39,3.05-8.97,1.45-13.86-2.04-6.25-5.58-11.37-10.81-15.34-.66-.5-1.25-1.13-1.97-1.54-4.77-2.74-5.84-7.3-6.16-12.26-.24-3.74-.34-7.5-.81-11.21-.61-4.87-3.3-8.45-7.56-10.87-4.5-2.56-9.39-3.88-14.44-4.76-1.12-.19-2.3-.48-3.27-1.04-5.24-3.01-9.7-6.79-12.12-12.58-1.45-3.45-3.11-6.82-4.63-10.24-.65-1.45-1.77-1.28-2.89-.91-2.95.98-5.86,2.09-8.81,3.06-3.38,1.12-6.64.57-11.04-1.74-5.73,4.83-11.57,2.58-17.26.04-2.64-1.18-4.98-3.03-7.48-4.55-3.79-2.31-9.23-1.48-12.27,1.76-.77.82-1.74,1.45-2.61,2.16,1.29-2.6,2.98-4.63,5.95-5.58,3.92-1.25,7.55-1.42,10.91,1.35.56.46,1.2.82,1.82,1.21,4.1,2.62,8.51,4.27,13.41,4.74,2.8.27,4.82-.62,6.43-2.84-1.25-4.4-4.32-7.17-7.84-9.48-1.45-.95-3.16-1.95-4.81-2.06-6.49-.41-12.95.09-18.97,2.83-4.04,1.84-7.29,4.5-7.77,9.38-1.45,1.7-2.73,3.61-5.31,4.04.51-.52.98-1.09,1.53-1.55,1.31-1.11,2.28-2.41,2.64-4.12.74-3.52,3.08-5.82,5.98-7.63,4.9-3.06,10.37-4.11,16.04-4.45.73-.04,1.46.05,2.18-.02,7.46-.64,12.26,3.5,16.3,9.03.43.58.77,1.23,1.25,2.02.71-.37,1.41-.73,2.11-1.1-.19,1.11-.37,2.22-.56,3.33,2.64,2.04,3.98,2.38,7.18,1.62-1.51-.52-2.97-.68-3.96-1.44-1.04-.8-1.65-2.17-2.45-3.28-.06-.08-.17-.12-.25-.18-.58-.96-.97-2.11-1.76-2.85-8.34-7.86-18.25-11-29.61-9.57-2.17.27-4.34.61-6.47,1.07-6.17,1.35-9.09,4.58-9.92,10.79-.07.56-.33,1.09-.64,2.05-1.38-6.05,1.67-11.54,7.52-13.33,3.56-1.09,7.34-1.71,11.05-1.93,3.82-.22,7.69.3,11.54.49.39.02.78,0,1.47,0-1.46-1.58-2.74-2.92-3.96-4.31-1-1.13-2.29-1.38-3.69-1.31-4.48.24-8.95.44-13.42.79-5.14.4-8.86,3.45-12.07,7.1-.84.96-.84,2.65-1.35,4.42-.97-2.08-.63-3.72.52-5.1,3.3-3.94,7.26-7.03,12.52-7.61,4.55-.51,9.17-.46,13.74-.79,2.32-.17,3.94.79,5.48,2.4,1.43,1.49,2.97,2.99,4.72,4.05,2.95,1.77,6.07,2.07,9.09-.14,1.35-.98,2.77-1.87,4.2-2.73,3.25-1.96,6.69-3.35,10.54-3.62,5.22-.37,10.42-.66,15.57.57,3.95.95,7.4,2.79,10.25,5.72.73.75,1.6,1.37,2.25,2.18,2.88,3.64,6.86,4.93,11.25,5.35,1.56.15,3.14.05,4.69.26,4.21.56,7.38-1.22,10-4.12-4.29-.69-8.62-1.39-12.94-2.09.02-.27.03-.55.05-.82,1.24.06,2.56-.14,3.7.22,5.14,1.61,10.36,1.06,15.53.65,3.78-.3,7.45-.44,11.18.47,1.66.4,3.49.24,5.24.13,4.26-.26,8.52-.72,12.78-.92,1.18-.06,2.45.37,3.58.82,7.04,2.8,10.51,8.54,12.53,15.44.44,1.5.97,2.99,1.28,4.51.28,1.43,1.05,2.18,2.42,2.51,1.52.36,3.01.86,4.54,1.17,4.54.9,8.9,2.23,12.82,4.78.32.21.73.3,1.41.57-.92-7.15-2.99-13.25-9.5-16.89-1.55-.86-3.05-1.81-4.59-2.68-2.86-1.6-4.86-3.9-5.72-7.07-.29-1.06-.9-1.53-1.86-1.86-3.8-1.31-7.09-3.5-10.19-6.02-1.22-.98-2.61-1.75-3.78-2.79-4.76-4.24-10.43-4.87-16.43-4.3-2.6.25-4.87,1.4-6.71,3.1-3.16,2.9-6.81,3.81-10.96,3.56-6.88-.41-13.78-.51-20.63-1.16-5.12-.49-9.93-2.41-14.4-4.97-2.16-1.24-4.32-1.97-6.82-1.82-4.02.24-8.05.39-12.74.61,1.43-.47,2.32-.97,3.25-1.04,4.15-.31,8.31-.6,12.47-.65,1.16-.01,2.39.69,3.47,1.27,6.64,3.58,13.63,5.62,21.25,5.57,5.53-.04,11.05.37,16.58.59,2.4.1,4.47-.53,6.3-2.21,4.56-4.2,10.13-5.08,16.05-4.62,2.78.22,5.27,1.25,7.52,2.85,3.07,2.17,6.08,4.42,9.17,6.56,2.21,1.53,4.4,3.13,7.35,3.75.22-1.32-.3-1.99-1.23-2.66-3.05-2.19-5.94-4.6-9.05-6.69-4.15-2.78-8.29-5.66-12.74-7.9-6.22-3.13-12.75-2.81-19.04.04-5.03,2.28-9.86,5-14.89,7.27-4.48,2.02-9.18,1.44-13.78.3-2.68-.67-4.44-2.63-5.89-4.87-.79-1.23-1.46-2.54-2.29-3.74-1.85-2.67-4.36-4.07-7.68-4.04-3.39.04-6.66.61-9.69,2.12-2.98,1.49-5.99,2.98-8.75,4.81-4.71,3.13-9.6,5.83-14.73,8.22-2.08.97-4.05,1.62-6.26,1.34-1.22-.15-2.46-.5-3.58-1-3.9-1.75-7.7-3.73-11.65-5.37-2.57-1.07-5.26-2.08-7.99-2.5-8.03-1.24-16.3,5.61-19.19,11.28.13-.71.06-1.56.43-2.12,3.72-5.59,8.35-9.84,15.47-10.44,4.06-.34,7.85.39,11.51,2.21,4.11,2.04,8.31,3.9,12.48,5.81,2.62,1.2,5.15,1.4,7.69-.39,1.26-.88,2.84-1.3,4.22-2.04,2.2-1.17,4.37-2.41,6.54-3.64,4.53-2.57,9.02-5.23,13.61-7.69,3.92-2.11,8.26-2.16,12.54-1.76,3,.28,5.07,2.29,6.68,4.72.87,1.3,1.6,2.69,2.47,4,1.45,2.18,3.45,3.47,6.05,4.09,5.62,1.33,10.73.09,15.69-2.52,4.43-2.33,8.88-4.62,13.35-6.88,1.34-.67,2.58-1.49,4.31-.39.89.57,2.44.1,3.81.1-1.01-1.25-1.92-2.4-2.85-3.52-1.33-1.61-2.75-3.05-4.67-4.06-2.81-1.49-5.1-1.75-7.94.37-4.2,3.13-9.13,5.08-14.24,6.27-5.41,1.26-10.36.32-14.21-4.14-1.29-1.5-2.94-2.3-4.94-2.32-7.08-.06-14.01.61-20.13,4.61-3.4,2.22-7.03,3.35-11.04,3.99-5.5.88-10.95,1.41-16.51,1.07-2.2-.14-3.91-.67-5.29-2.65-2.04-2.92-6.4-3.63-10.29-2.05-1.2.49-2.35,1.1-3.52,1.66l-.34-.55c1.23-.83,2.46-1.66,3.69-2.49-.03-.12-.07-.25-.1-.37-1.27.42-2.55.8-3.8,1.27-1.27.47-2.53.97-3.76,1.56-3.76,1.8-7.55,3.53-11.22,5.5-2.6,1.39-4.76,3.38-5.94,5.8-1.61-.77-3.05-1.8-4.63-2.15-2.75-.61-5.26.47-8.18,2.03,3.32.48,6.09.88,8.85,1.29,0,.21,0,.43,0,.64-.63.08-1.28.28-1.9.23-1.77-.14-3.55-.27-5.28-.6-3.75-.7-7,.17-9.86,2.68-.41.36-1.05.47-1.6.67-.6.23-1.38.27-1.79.68-1.84,1.83-3.58,3.76-5.17,6.04.5-.14,1.02-.23,1.5-.42,3.67-1.48,7.31-3.07,11.01-4.46,3.64-1.37,7.37-1.24,11.07-.12.44.13.8.51,1.65,1.06-1.15,0-1.78.11-2.34-.02-4.23-.97-8.27-.41-12.21,1.35-3.52,1.57-7.07,3.07-10.63,4.56-5.52,2.3-7.74,7.16-9.44,12.42.32-.46.67-.9.94-1.38,2.15-3.77,5.08-6.47,9.48-7.46,1.71-.38,3.31-1.24,4.94-1.94,2.14-.92,4.34-1.33,6.69-1.32,1.95,0,3.9-.55,5.86-.62,2.16-.07,4.33.07,6.49.25.49.04.93.61,1.23,1.42-.52-.05-1.04-.15-1.56-.13-2.27.11-4.53.23-6.8.38-1.56.1-3.12.17-4.66.41-2.24.35-4.49.72-6.68,1.3-2.4.64-4.92,1.22-7.04,2.42-2.21,1.26-4.14,3.11-5.96,4.94-1.22,1.22-2.11,2.81-3.01,4.31-.33.54-.27,1.32-.52,2.81,1.3-.9,2.04-1.33,2.69-1.86,2.19-1.77,4.29-3.62,7.33-3.9.8-.07,1.55-.95,2.26-1.53,4.52-3.69,9.63-5.82,15.52-5.64,1.53.05,3.07.55,4.56.97.46.13.79.71,1.27,1.16-.44.17-.66.34-.8.29-7.69-2.71-14.08.13-19.99,4.77-1.1.86-2.08,1.48-3.51,1.74-1.37.25-2.71,1.04-3.89,1.84-1.63,1.11-3.24,2.32-4.6,3.74-.88.92-1.52,2.21-1.89,3.45-.4,1.36-.37,2.85-.5,3.99,1.58-1.43,3.3-2.93,4.97-4.48,3.3-3.08,6.91-5.19,11.69-5.18,2.33,0,4.68-.86,6.97-1.51,3.51-.99,6.97-2.14,10.46-3.19.35-.1.77.05,1.18.09-.14,1.34-1.06,1.54-1.98,1.82-3.59,1.1-7.13,2.35-10.75,3.32-2.09.56-4.28.86-6.45.98-2.36.12-4.55.58-6.5,1.93-5.53,3.82-10.23,8.24-11.48,15.31-.32,1.79-1.03,3.51-1.31,5.46,9.08-10.04,20.29-15.63,33.59-17.04,1.32-.14,2.83-.54,4.47.92-1.16.19-1.81.36-2.47.39-13.13.76-24.13,6.09-33.05,15.65-1.52,1.63-2.72,3.76-3.5,5.87-2.47,6.65-4.53,13.34-4.24,20.69.21,5.27-.76,10.59-1.26,15.88-.27,2.84-1.73,4.77-4.44,5.88-5.77,2.34-7.82,7.01-8.05,12.92-.23,5.76.93,11.14,3.37,16.37,1.62,3.48,2.9,7.15,3.93,10.85.48,1.72.5,3.9-.14,5.54-1.72,4.41-1.57,9.03-2.01,13.57-.51,5.3-1.89,10.18-4.79,14.68-3.07,4.75-6.47,9.16-10.72,12.97-4.19,3.76-7.05,8.5-8.53,13.98-.35,1.29-.46,2.67-.47,4.01-.03,5.95-.3,11.93.11,17.86.42,6.01.96,12.11,3.85,17.6,1.87,3.55,1.67,7.27,1.25,11-.67,5.8-1.41,11.6-3.69,17.06-.19.45-.22.96-.44,1.99,1.63-1.27,2.89-2.15,4.02-3.16,2.03-1.83,3.47-3.87,2.15-6.84-.96-2.15-.16-3.84,1.7-5.13.43-.3.79-.69,1.21-.99,2.7-1.92,3.61-4.48,3.61-7.82,0-8.97.33-17.94.61-26.91.08-2.52-.46-4.8-2-6.75-1.32-1.67-1.59-3.6-1.73-5.58-.09-1.35.04-2.72,0-4.07-.07-1.9.61-3.45,1.92-4.79,1.25-1.26,2.35-2.68,3.7-3.82,3.82-3.21,5.13-7.5,5.32-12.22.08-1.82.45-3.43,1.31-5.06.7-1.33.89-2.95,1.23-4.46.24-1.04.35-2.1.86-3.09.47,3.06,1.32,6.11-.76,8.9-1.05,1.4-1.2,3.04-1.21,4.75-.04,4.79-1.58,8.98-5.29,12.22-.47.41-.89.88-1.32,1.34-4.77,5.02-3.92,3.11-4.02,10.44-.02,1.63.37,3.08,1.38,4.38,1.81,2.32,2.47,4.99,2.4,7.91-.24,9.49-.42,18.98-.66,28.47-.06,2.51-.95,4.68-2.94,6.32-.8.67-1.53,1.44-2.4,2.01-1.44.96-1.75,2.2-1.32,3.79.35,1.29.6,2.6.95,4.18.7-.44,1.33-.73,1.84-1.17,3.01-2.59,6.11-5.08,8.93-7.85,3.29-3.23,3.98-7.48,3.65-11.88-.07-.92-.9-1.8-1.42-2.68-1.54-2.58-3.36-5.04-4.6-7.76-1.43-3.12-1.31-6.29,1.24-9.02,1.63-1.75,3.2-3.57,4.77-5.39,1.5-1.73,2.93-3.52,4.44-5.24.96-1.09,1.89-2.25,3.02-3.13,3.24-2.53,3.72-8.34.78-11.24-1.11-1.1-2.38-2.04-3.53-3.09-2.46-2.24-2.87-4.27-1.43-7.27.5-1.03,1.06-2.05,1.7-2.99,2.08-3.06,2.96-6.45,2.71-10.09-.1-1.41-.43-2.87-.99-4.16-1.15-2.67-1.55-5.42-1.37-8.26.11-1.8.77-3.4,2.69-4.78-.04.74.04,1.12-.08,1.41-1.5,3.63-1.08,7.28.47,10.65,2.26,4.93,1.4,9.51-.77,14.08-.71,1.5-1.74,2.86-2.46,4.35-1.36,2.82-1.02,4.22,1.34,6.34,1.24,1.11,2.45,2.26,3.73,3.33,1.41,1.18,1.94,2.65,1.76,4.44-.16,1.55-.29,3.11-.45,4.66-.18,1.69-1.17,2.76-2.49,3.78-1.37,1.06-2.52,2.42-3.7,3.71-1.62,1.76-3.18,3.59-4.78,5.37-1.18,1.32-2.34,2.66-3.57,3.94-2.23,2.33-2.29,5.02-1.29,7.85.98,2.76,2.21,5.43,4.32,7.55,1.78,1.78,2.27,3.9,2,6.31-.53,4.62-2.22,8.67-5.81,11.77-3.16,2.73-6.27,5.52-9.55,8.09-3.48,2.74-5.34,6.56-2.94,11.87,1.26,2.8,2.55,5.48,4.8,7.59,2.59,2.43,3.24,5.41,2.92,8.83-.66,7.03-4.56,11.44-10.94,13.9-.85.33-1.83.34-2.75.43-4.63.47-7.83,3.57-7.68,8.22.03,1.04.04,2.09-.02,3.13-.14,2.11.38,4.09,2.02,5.37,3.9,3.02,3.32,7.09,2.9,11.14-.53,5.24-3.43,9.57-5.72,14.1-.76,1.51-2.23,2.8-3.65,3.81-4.5,3.2-9.09,6.29-13.72,9.3-3.77,2.45-8.16,3.16-12.49,3.76-4.04.56-7.68,2.03-10.97,4.3-4.38,3.03-5.09,5.94-2.72,11.43.7,1.63,2.29,2.9,3.51,4.3,1.84,2.11,3.74,4.16,5.57,6.28,1.16,1.34,2.07,2.92,3.36,4.11,5.74,5.32,3.29,14.67-4.65,17.13-3.39,1.04-6.76,2.14-10.12,3.24-.79.26-1.56.59-2.28,1.01-2.86,1.66-3.83,3.73-2.81,6.77.3.9,1.43,1.79,2.38,2.16,3.3,1.26,6.69,2.28,10,3.37.2-.32.41-.5.39-.65-.61-4.3,1.69-6.98,5.13-8.83,2.74-1.47,5.6-2.79,8.51-3.9,3.22-1.23,6.54-2.17,9.32-4.32,2.39-1.84,4.15-3.94,4.25-7.25.09-3.24-1.37-5.27-3.96-6.91-3.52-2.23-6.94-4.61-10.42-6.9-1.57-1.03-2.11-2.48-2.03-4.29.1-2.24.47-2.89,2.69-3.64,1.48-.5,3.02-.82,4.53-1.19,3.95-.96,7.92-1.83,11.84-2.89,3.57-.96,4.8-2.54,4.82-6.33.02-3.96-.13-7.93-.33-11.88-.11-2.16.56-3.87,2.15-5.28,1.33-1.17,2.48-2.6,3.97-3.51,1.27-.78,2.88-1.24,4.38-1.37,2.93-.26,6.15-2.17,7.01-5.69.53-2.18.24-3.98-1.08-5.87-3.13-4.47-3.05-9.68-.12-13.74,1.35-1.87,3.2-2.95,5.31-3.68,4.73-1.64,7.97-4.87,9.89-9.42.56-1.32,1.16-2.84,1.02-4.19-.8-7.63,2.79-13.46,7.26-19.05,1.01-1.27,1.79-2.81,2.33-4.35.58-1.65.31-3.29-1.22-4.51-2.69-2.16-3.18-5.12-3.32-8.4-.21-5.18,1.4-9.49,4.5-13.61,1.9-2.53,2.95-5.72,4.23-8.68.28-.65.14-1.68-.19-2.35-.68-1.4-1.53-2.73-2.45-3.99-1.53-2.1-2.31-4.4-2.3-7.01.02-4.38-.35-8.78,1.97-12.83.54-.95.48-2.23.79-3.33.41-1.5.78-3.03,1.39-4.45,1.13-2.65,2.42-5.22,3.74-8.03.94.19,1.12,1.15.83,2.03-.54,1.67-1.18,3.34-2.02,4.88-1.07,1.95-1.86,3.91-2.1,6.16-.16,1.42-.63,2.87-1.24,4.17-2.16,4.61-1.26,9.42-.94,14.16.07,1.05.9,2.08,1.48,3.06.58.98,1.32,1.88,1.95,2.84,1.42,2.17,1.75,4.28.2,6.67-1.12,1.73-1.69,3.8-2.59,5.68-.49,1.02-1.05,2.05-1.78,2.91-2.38,2.84-3.74,5.99-3.35,9.78.09.83.09,1.68,0,2.5-.29,2.71.55,4.98,2.65,6.68,2.34,1.9,2.46,4.25,1.41,6.75-.64,1.52-1.53,2.95-2.45,4.32-1.16,1.73-2.5,3.34-3.69,5.05-2.28,3.28-3.1,6.88-3.07,10.92.05,7.26-3.49,12.68-9.72,16.33-1.07.63-2.25,1.1-3.42,1.55-4.97,1.94-6.38,6.51-4.64,11.66.39,1.16,1.1,2.26,1.85,3.24,1.11,1.45,1.39,3.02,1.03,4.73-.98,4.62-3.24,8.7-9.24,8.91-3.23.11-5.11,2.54-7.23,4.54-1.57,1.48-1.54,3.33-1.44,5.22.17,3.33.45,6.65.55,9.98.06,2-.26,3.98-1.55,5.63-1.34,1.7-3.07,2.71-5.22,3.18-4.48.97-8.94,2.06-13.39,3.15-1.2.29-2.34.79-3.42,1.16-.82,2.42-.09,3.96,1.87,5.2,2.99,1.89,5.79,4.11,8.85,5.87,4.48,2.58,6.75,6.14,4.52,12.07-.11.29-.18.58-.37,1.2.95-.27,1.7-.49,2.45-.7,3.83-1.03,7.65-2.14,11.69-1.93.72.04,1.46-.09,2.18-.16,4.06-.36,6.65-2.58,7.33-6.54.58-3.37.91-6.83.86-10.25-.02-1.52-1.01-3.2-1.96-4.5-2.22-3.02-4.39-6.19-7.13-8.69-4.66-4.26-4.69-9.52-4.08-15.01.11-1.01.96-2.08,1.74-2.86,2.33-2.31,5.31-3.29,8.52-3.43,4.27-.18,8.56-.37,12.83-.21,5.09.19,9.33-1.75,13.38-4.48,1.62-1.09,2.5-2.35,1.89-4.45-.66-2.3.03-4.13,2.44-5.03,1.15-.43,1.39-1.3,1.46-2.47.25-3.78-.55-7.22-2.65-10.41-1.94-2.97-3.86-5.97-5.48-9.12-.98-1.9-1.5-4.07-1.99-6.17-.42-1.78.37-3.18,1.85-4.33,2.48-1.91,4.86-3.95,7.26-5.96.88-.74,1.71-1.53,2.52-2.34,2.59-2.59,3.92-5.55,3.15-9.34-1.45-7.14-1.86-14.5-4.4-21.41-1.26-3.42-1.09-6.99-.96-10.54.08-2.23,1.75-3.42,3.25-4.74,1.55-1.37,3.2-2.69,4.45-4.31,2.72-3.53,2.99-7.73,2.52-11.96-.13-1.16-.87-2.3-1.52-3.33-1.39-2.2-3.01-4.26-4.34-6.5-2.09-3.52-2.23-6.93.3-10.51,1.72-2.43,2.98-5.24,4.07-8.03.97-2.46.32-4.68-1.42-6.94-2.59-3.37-4.74-7.1-6.84-10.82-1.35-2.38-1.47-5.13-.11-7.53,2.32-4.08,2.12-7.93-.33-11.81-.32-.51-.48-1.14-.65-1.73-.04-.14.16-.34.45-.9,2.78,3.06,4.54,6.26,3.95,10.38-.18,1.22-.58,2.45-1.12,3.55-1.63,3.32-1.36,6.44.67,9.47,2.14,3.2,4.14,6.51,6.44,9.58,1.81,2.41,1.81,4.91.78,7.39-1.15,2.77-2.45,5.56-4.19,7.99-2.21,3.09-1.92,6.08-.45,9.12.94,1.95,2.15,3.87,3.59,5.47,3.82,4.24,3.33,9.03,1.87,13.84-1.02,3.34-2.93,6.27-6.09,8.08-2.67,1.53-3.58,3.75-3.48,6.78.1,3.48.31,6.87,1.82,10.08.31.65.53,1.38.65,2.09,1.04,6.26,2.05,12.53,3.06,18.8.43,2.67-.34,5.02-2.2,6.9-2.41,2.44-4.95,4.75-7.47,7.08-.84.78-1.78,1.45-2.68,2.16-3.1,2.48-3.63,4.23-1.82,7.79,1.6,3.15,3.41,6.22,5.33,9.2,2.41,3.74,4.55,7.51,4.08,12.73,1.21-.6,2.07-.86,2.72-1.39,3.21-2.62,6.05-5.43,5.8-10.12-.1-1.98-.47-3.69-2-5.05-2.35-2.09-2.07-4.87-1.83-7.58.12-1.27,1.04-2.08,2.21-2.38,1.9-.49,3.85-.82,6.1-1.29,1.19-2.24,1.69-4.6-.37-7.17-1.88-2.36-3.45-4.97-5.1-7.51-1.55-2.4-.94-4.85,1.77-5.4,3.85-.78,4.87-3.53,5.67-6.64.26-1,.33-2.06.46-3.1.15-1.23-.2-2.21-1.24-3.01-3.42-2.62-5.29-6.09-5.63-10.4-.11-1.46-.33-2.9-.49-4.36-.48-4.31.08-8.27,3.25-11.62,2.1-2.22,3.02-5,2.54-8.09-.48-3.08-.83-6.21-1.69-9.19-.43-1.48-1.82-2.7-2.84-3.99-.54-.67-1.23-1.22-2.15-2.11,2.72.01,5.33,1.66,6.21,4.32,1.07,3.24,1.72,6.64,2.32,10.01.75,4.23-.95,7.82-3.61,10.93-1.97,2.31-2.73,4.85-2.41,7.8.25,2.28.36,4.58.73,6.84.61,3.62,2.22,6.75,5.3,8.9,1.19.83,1.46,1.88,1.5,3.21.09,3.47-1.01,6.61-2.82,9.46-.6.95-1.88,1.52-2.92,2.12-.96.55-2.02.92-3.15,1.41.3.85.41,1.49.73,1.98,1.84,2.79,3.63,5.61,5.63,8.27,1.19,1.58,1.45,3.16.97,4.99-.39,1.48-.77,2.97-1.18,4.58-1.36,0-2.53-.19-3.61.05-1.47.31-3.63.55-4.12,1.52-.91,1.78-.75,4.07.67,5.91.06.08.14.15.21.23,3.58,4.3,3.71,8.79.43,13.31-1.61,2.21-3.31,4.31-5.8,5.59-1.51.77-2.29,1.94-2.59,3.64-.22,1.29-.62,2.75-1.44,3.71-1.5,1.76-1.34,3.34-.34,5.15.35.63.66,1.33.79,2.03.52,2.72-1.41,5.24-4.22,5.62-.52.07-1.04.12-1.54.25-1.81.48-3.61.98-5.98,1.63,1.02.58,1.66.92,2.29,1.29,2.05,1.2,4.39,2.1,6.09,3.68,3.61,3.36,1.81,9.23-2.95,10.45-6.65,1.71-13.35,3.28-19.88,6.52,1.4,3.41,2.79,6.72,5.2,9.51.82.95,1.75,1.82,2.46,2.84,1.94,2.78.68,5.74-2.62,6.28-1.11.18-2.24.27-3.3.39-.76,2.14.69,2.83,1.93,3.52,2.74,1.52,5.52,2.94,8.28,4.41.64.34,1.3.68,1.89,1.1,2.59,1.81,2.86,4.65.34,6.53-2.95,2.2-6.33,3.6-10.07,3.9-3.88.31-7.45-.18-10.29-3.33-1.67-1.86-4.27-1.74-6.47-.11-2.09,1.55-2.75,3.79-1.73,6.07.34.76.91,1.41,1.22,2.18.55,1.39.1,3.13-.93,3.66-1.32.7-2.44.13-3.37-.83-.8-.82-1.45-1.79-2.28-2.58-.74-.7-1.55-1.48-2.48-1.81-2.05-.74-3.16.16-3.24,2.35-.1,2.88,1.2,5.02,3.57,6.53,2.05,1.31,3.05,3.06,2.66,5.54-.36,2.29-1.55,3.07-3.72,2.25-2.01-.75-1.99-.84-3.86-.27-1.62,5.45.66,11.51,5.66,15.41,2.05,1.6,4.06,3.29,5.82,5.18,2.93,3.15,2.66,8.54-.38,11.61-1.85,1.87-6.13,1.89-7.99,0-.2-.2-.29-.54-.33-.84-.02-.17.16-.36.35-.76.49.31.95.64,1.44.9,3.15,1.65,5.86.57,6.84-2.87.73-2.6.78-5.2-1.48-7.24-1.78-1.6-3.49-3.3-5.39-4.74-4.88-3.7-7.17-8.55-6.92-14.64.16-3.9,2.09-5.16,5.79-3.76.57.22,1.13.46,1.67.69,1.19-2.09,1.22-2.91-.02-4.21-.71-.75-1.62-1.31-2.43-1.96-2.77-2.22-3.34-5.19-2.75-8.46.35-1.93,1.92-2.88,4-2.62,1.98.24,3.42,1.43,4.7,2.85.86.96,1.76,1.88,2.69,2.87,1.19-1.3.44-2.03.01-2.82-3.05-5.61,1.29-9.96,5.34-10.63,1.86-.31,3.67,0,4.85,1.52,2.54,3.26,5.96,3.77,9.59,3.03,2.62-.53,5.25-1.43,7.64-2.62,2.92-1.46,2.81-3.77-.06-5.35-2.92-1.61-5.92-3.08-8.87-4.64-1.58-.83-3.19-1.64-3.4-3.74-.21-2.16.54-3.11,2.68-3.3.83-.07,1.69.02,2.5-.13,1.83-.33,2.46-1.56,1.59-3.21-.43-.82-1.06-1.57-1.73-2.21-2.88-2.75-4.37-6.34-6-9.83-.97-2.07-.45-3,1.66-3.89,5.98-2.51,12.14-4.45,18.5-5.74,2.02-.41,3.46-1.3,4.06-3.37.62-2.11-.14-3.87-1.75-4.97-1.86-1.27-3.98-2.21-6.09-3.03-1.22-.47-2.46-.61-2.41-2.3.05-1.6,1.21-2.1,2.46-2.4,2.73-.65,5.48-1.22,8.39-1.86,1.94-2.35.57-4.48-.69-6.77-2.33,1.41-4.53,2.78-6.75,4.08-2.59,1.51-5.37,2.1-8.39,2.07-4.59-.05-9.18.14-13.77.28-1.03.03-2.09.19-3.09.47-3.64,1.02-6.15,2.23-5.66,7.19.07.72.1,1.47.02,2.19-.37,3.19,1.07,5.54,3.13,7.83,2.85,3.18,5.43,6.59,8.07,9.95,1.53,1.95,2.31,4.16,2.03,6.71-.35,3.1-.38,6.25-.98,9.3-.81,4.09-3.65,6.44-7.66,7.34-1.32.3-2.69.61-4.02.56-5.69-.2-10.92,1.5-15.96,3.87-2.05.97-3.96,2.29-5.79,3.64-1.38,1.01-2.28,2.49-2.18,4.31.26,5,.17,10.06,1.02,14.96.55,3.17,2.37,6.18,3.91,9.11,1.4,2.67,3.33,5.06,4.77,7.71.71,1.31,1.02,2.93,1.14,4.45.18,2.28-.03,4.6.06,6.89.11,2.72-1.07,4.75-2.93,6.63-4.96,5.02-10.84,5.83-17.58,4.9-9.35-1.3-14.93-7.22-19.66-14.52-.08-.13.02-.38.08-1.02.71.66,1.29,1.12,1.78,1.66,2.11,2.31,4.18,4.66,6.3,6.96,2.2,2.38,4.99,3.8,8.12,4.42,2.76.54,5.56.85,8.34,1.21,3.05.39,5.73-.57,8.31-2.16,3.65-2.25,5.52-5.24,5.75-9.71.27-5.3-.96-9.88-4.26-13.97-7.19-8.9-7.76-18.79-6.76-30.46-2.59.1-4.77,1.3-6.97,2.37-1.22.59-2.41,1.25-3.55,1.98-3.75,2.4-4.61,4.87-2.92,9.02,1.1,2.71,2.71,5.11,4.92,7.15,3.89,3.61,7.77,7.2,10.69,11.78,1.8,2.83,1.73,5.41.18,7.89-2.84,4.53-6.6,7.75-12.48,7.45-3.33-.17-6.7.16-9.87-1.19-.75-.32-1.44-.76-2.07-1.55.49.09.99.11,1.45.27,4.15,1.45,8.48,1.51,12.7.94,4.45-.59,7.4-3.68,9.27-7.63.72-1.53.54-3.28-.42-4.82-2.77-4.48-6.45-8.14-10.7-11.96-.17,1.15-.38,1.9-.37,2.65.01,2.4-.87,4.45-2.15,6.43-4.52,7.04-10.98,10.31-19.28,10.01-2.19-.08-4.39-.14-6.54-.49-2.2-.35-4.11-1.37-5.04-3.78,3.14,2.42,6.76,2.26,10.35,2.09,5.07-.24,8.28-4.21,7.35-9.18-.45-2.41-2.27-3.97-4.19-5.23-2.09-1.37-4.34-2.5-6.52-3.72-2.18-1.23-4.47-2.29-6.54-3.7-4.34-2.95-7.43-6.72-7.13-12.4.06-1.15,0-2.3,0-3.45.03-5.32,2.96-9.31,8.09-10.95,1.39-.45,2.8-.85,4.23-1.15,6.68-1.42,9.69-8.97,8.94-14.33-.35-2.48-2.16-4.22-3.96-5.84-1.79-1.6-3.67-3.11-5.35-4.81-2.97-3.02-4.25-6.61-4.5-10.96-.39-6.73,1.78-12.5,5.03-18.09,1.35-2.32,3.2-4.04,5.6-5.29,5.01-2.6,10.26-4.33,15.93-3.69,5.55.63,9.95-1.47,14.04-4.84,1.5-1.24,2.61-2.68,3.12-4.57,1.26-4.75,2.42-9.47,2.26-14.48-.18-5.63-.09-11.22-1.12-16.83-.63-3.44-.57-7.11-.2-10.61.46-4.42,3.37-7.58,6.9-9.99,2.4-1.63,5.13-2.79,7.64-4.27,2.69-1.58,5.35-3.22,7.93-4.98.81-.55,1.59-1.46,1.92-2.38,1.44-4.02,3.09-8.01,3.95-12.17.93-4.46,1.23-9.09,1.45-13.66.09-1.89-.37-3.99-1.18-5.71-2.81-6-3.49-12.44-3.99-18.87-.4-5.19-.02-10.44-.22-15.66-.17-4.34,1.04-8.25,3.06-11.98,2.01-3.7,4.69-6.84,7.76-9.75,5.74-5.44,10.68-11.56,12.63-19.4,1.02-4.12,1.12-8.46,1.65-12.7.17-1.34.06-2.82.6-3.99,2.29-4.95.92-9.55-.91-14.2-1.53-3.88-3-7.78-4.38-11.71-1.42-4.04-1.28-8.3-.75-12.41.69-5.38,3.5-9.62,8.71-11.75,2.48-1.01,3.33-2.71,3.74-5.2.92-5.59,1.39-11.2,1.22-16.84-.15-5.01.85-9.73,2.43-14.42,1.03-3.06,1.82-6.19,2.71-9.29.43-1.5.8-3.02,1.3-4.5.41-1.2.62-2.28.26-3.62-.3-1.1-.17-2.57.33-3.6,2.33-4.72,2.69-9.83,3.05-14.9.22-3.12.75-5.98,2.61-8.52.31-.42.71-.86.78-1.33.45-3.28,2.69-5.31,4.97-7.34.86-.76,1.68-1.57,2.45-2.41,6.08-6.64,12.77-12.6,19.88-18.11,1.07-.83,2.07-1.75,3.13-2.6,2.68-2.14,5.27-4.42,8.11-6.33,2.82-1.9,5.93-3.38,8.85-5.16.76-.46,1.28-1.33,1.88-2.04,1.2-1.43,2.26-3.02,3.6-4.31,2.28-2.18,4.84-3.83,8.08-4.49,3.26-.66,6.41-1.83,9.62-2.73,1.2-.34,2.44-.73,3.66-.76,5.72-.16,11.07-2.1,16.46-3.6,4.05-1.13,8.07-2.1,12.22-2.44,5.29-.43,10.61-.68,15.92-.78,1.6-.03,3.2.71,4.82,1.05,1.61.34,3.22.84,4.84.88,4.17.11,8.35-.08,12.52.02,2.69.07,5.39.36,8.07.7.99.13,1.97.6,2.88,1.06,3.43,1.75,6.86,3.49,10.21,5.39,1.61.91,3.02,2.18,4.55,3.25,1.09.77,2.15,1.92,3.35,2.12,4.75.82,7.94,3.91,11.16,7.07,3.13,3.06,6.28,6.12,9.6,8.96,2.29,1.96,4.92,3.52,7.37,5.29,3.24,2.35,6.16,5.02,7.77,8.79.57,1.32.9,2.75,1.25,4.15.7,2.83,1.25,5.7,2.03,8.51.67,2.38,2.25,4.21,4.25,5.62,1.19.84,2.45,1.61,3.77,2.23,6.92,3.28,10.47,8.95,11.72,16.3.09.51.21,1.03.23,1.55.09,3.01.91,5.71,3.16,7.85.15.14.31.32.35.51.83,3.82,4,5.13,7.06,6.44,4.31,1.85,8.77,3.37,13.01,5.37,3.09,1.46,5.91,3.47,8.84,5.25.71.43,1.31,1.09,2.06,1.41,4.93,2.09,7.18,6.17,8.09,11.11.48,2.63,1.78,4.23,4.24,5.3,7.51,3.27,8.52,5.04,8.24,13.16-.08,2.38-.88,4.46-2.12,6.45-2.42,3.88-2.3,5.51.93,8.78,4.07,4.12,8.72,7.44,14,9.86,1.61.74,3.18,1.57,4.76,2.37,5.49,2.78,9.49,7.13,12.57,12.33,3.2,5.4,3.81,10.93.4,16.58-1.24,2.04-2.12,4.3-3.28,6.4-1.65,2.98-1.85,6.21-1.48,9.44.18,1.58.83,3.3,1.79,4.56,1.95,2.56,4.34,4.78,6.39,7.28,1.51,1.83,2.89,3.8,4.1,5.84,2.37,3.98,4,8.24,4.47,12.9.15,1.52,1.31,1.95,2.55,2.38,3.89,1.36,7.27,3.44,10.24,6.4,3.9,3.89,4.07,8.46,3.23,13.35-.23,1.33-.57,2.68-1.14,3.9-1.8,3.83-.63,7.22,1.37,10.5,2.74,4.49,6.41,7.87,11.38,9.87,5.6,2.26,11.18,4.62,16.65,7.19,9.4,4.42,15.96,11.4,17.9,21.86.64,3.43.36,7.07.18,10.6-.06,1.09-1.19,2.12-1.81,3.19-.72,1.24-1.83,2.43-2.04,3.75-.63,3.92-.77,7.91.27,11.81.82,3.09,2.67,5.08,5.87,6.32,8.05,3.11,13.66,8.66,15.5,17.43.08.41.12.83.11,1.24,0,.41-.1.82-.18,1.36-1.86.87-3.72,1.74-5.6,2.61-2.11.98-3.31,2.5-2.97,4.95.03.2,0,.42,0,.63q-.07,4.33,3.3,6.57c-1.54,1.45-4.51.48-5.11-1.74-.21-.79-.19-1.66-.16-2.48.07-1.56.33-3.12.31-4.67-.02-1.88.76-3.21,2.33-4.13.99-.58,1.99-1.15,3.01-1.66.92-.46,1.89-.83,3-1.32-.76-4.72-2.42-8.93-6.1-11.98-2.88-2.39-5.96-4.56-9.6-5.78-1.14-.38-2.47-1.03-3.08-1.97-1.93-3-4.04-5.93-4.16-9.78-.14-4.42-2.57-6.74-7.04-7.13-.21-.02-.42,0-.63-.03-4.65-.6-6.35-4.62-3.54-8.47,1.17-1.6,2.32-3.23,3.7-4.63,1.59-1.63,1.82-3.53,1.4-5.51-.43-2.02-1.11-4.02-1.9-5.94-.88-2.11-2.61-3.2-4.93-3.21-1.94-.01-3.88,0-6.62,0,3.05,2.28,3.23,4.91,3,7.66-.25,2.99-1.44,5.61-3.18,8.01-.98,1.35-2.09,2.63-2.84,4.1-1.7,3.34-.8,5.83,2.74,6.78,7.75,2.07,13.18,6.93,17.14,13.64,3.5,5.92,6.96,11.87,10.29,17.89,1.86,3.36,1.18,6.91.22,10.41-.84-1.61-.38-3.34-.64-4.97-.28-1.72-.45-3.59-1.25-5.07-3.04-5.59-6.25-11.08-9.52-16.53-1.28-2.14-2.74-4.21-4.38-6.09-3.21-3.68-7.06-6.54-11.97-7.49-5.39-1.04-5.74-5.56-4.05-9.1.66-1.39,1.61-2.67,2.56-3.89,2.12-2.72,3.35-5.72,3.39-9.21.02-1.69-.4-3.07-1.89-4.02-.7-.45-1.3-1.06-2.02-1.47-.81-.46-1.68-.83-2.56-1.14-2.91-1.05-5.83-2.05-9.1-2.63.64.89,1.29,1.78,1.92,2.68,2.86,4.04,4.56,8.44,4.06,13.47-.11,1.1-.44,2.21-.84,3.26-1.11,2.95-1.9,5.93-1.85,9.12.03,1.49.63,2.47,1.9,3.33,3.89,2.62,7.69,5.36,11.51,8.08.13.09.12.37.21.67-1.02.72-1.96.24-2.78-.34-3.67-2.58-7.33-5.17-10.92-7.85-.59-.44-1.16-1.31-1.22-2.02-.34-3.77-.25-7.61,1.54-11,1.34-2.55,1.3-5.08.7-7.59-.99-4.11-3-7.77-5.86-10.93-1.61-1.78-3.7-2.63-5.98-3.16-5.37-1.26-10.76-2.49-16.09-3.89-2.31-.6-4.54-1.53-6.75-2.44-1.5-.62-2.56-1.74-2.88-3.45-.75-4.02-.29-7.89,1.48-11.58.25-.53.9-.87,1.72-1.02-.59,2.14-1.2,4.28-1.77,6.42-.16.6-.26,1.22-.29,1.84-.24,4.43.54,5.86,4.68,7.33,3.9,1.39,7.91,2.46,12.08,3.5-5.76-7.41-4.49-15.47-2.37-23.48-2.63-2.14-5.39-1.4-8.03-1.28-1.02.05-2.02.47-3.04.69-2.78.6-5.55,1.14-7.73-1.47-2.63,3.51-5.3,6.71-7.55,10.18-2.23,3.44-1.63,7.22-.08,10.77.95,2.19,2.18,4.29,3.47,6.3,2.4,3.73,5.62,5.89,10.35,5.82,4.99-.08,10.03.03,14.96.69,4.93.66,9.2,3.31,13.24,6.12,2.44,1.69,2.76,5.99.74,8.71-.74,1-1.62,1.94-2.58,2.72-4.53,3.65-2.67,13.88,2.23,16.04,2.87,1.26,5.56,2.66,8.82,2.89,4.58.33,8.54,2.69,12.39,4.94,2.86,1.68,5.51,3.78,8.08,5.9,5.04,4.16,6.41,9.85,4.26,16.12-.53,1.54-.75,3.23-.8,4.86-.07,2.69,1.12,4.85,3.39,6.33,2.36,1.54,4.78,2.99,7.12,4.55,2.96,1.97,3.89,7.34,1.82,10.32-.16.23-.49.33-.81.53.09-1.77.19-3.45.26-5.12.08-2.06-.79-3.59-2.57-4.67-2.23-1.35-4.45-2.73-6.61-4.19-4.12-2.78-5.52-7.42-3.87-12.09,2.84-8.03.3-12.46-4.32-16.14-4.43-3.53-9.08-6.67-14.41-8.68-1.06-.4-2.2-.78-3.31-.8-4.48-.07-8.31-1.92-11.86-4.38-1.23-.85-2.49-2.13-2.98-3.49-2.16-6.01-2.06-10.53,2.34-14.71,1.51-1.44,3.01-2.88,2.78-5.32-.14-1.46-.55-2.6-1.82-3.42-5.51-3.58-11.27-6.34-18.11-5.95-2.71.16-5.43-.04-8.14.04-5.45.15-9.39-2.43-12.27-6.79-1.38-2.08-2.73-4.26-3.6-6.58-1.77-4.68-2-9.37,1.28-13.65,1.64-2.15,3.25-4.34,4.88-6.5,1.57-2.07,2.02-4.22.93-6.73-.69-1.59-.78-3.39-2.12-4.78-1.66-1.71-3.46-2.68-5.89-3.14-3.87-.73-7.73-1.82-11.39-3.29-3.51-1.41-4.66-4.91-5.41-8.3-.35-1.59-.2-3.34,0-4.98.64-5.06,1.47-10.1,2.1-15.17.25-1.96.21-3.96.24-5.94.03-1.71-.84-2.54-2.53-3.01-1.98-.55-3.85-1.52-5.75-2.36-1.19-.52-1.53-1.52-1.6-2.79-.17-3.12.41-6.02,2.08-8.68.66-1.06,1.18-2.22,1.89-3.24,1.95-2.77,1.92-5.93,1.58-9.03-.11-1.06-1.1-2.16-1.93-2.98-3.76-3.69-8.72-4.75-13.61-5.76-3.36-.69-6.8-.97-10.21-1.39-.47-.06-.97.1-1.93.21.81.81,1.28,1.28,1.75,1.75,1.61,1.61,3.22,3.22,4.82,4.84.36.37.64.87,1.07,1.11,4.08,2.34,6.27,6.33,8.78,10.03.41.6.69,1.3,1.12,1.88,5.66,7.78,2.71,18.94-2.97,25.05-1.5,1.61-2.43,3.37-2.31,5.6.12,2.29.1,4.59.4,6.86.36,2.78,1.23,3.72,3.93,3.94,2.08.17,3.77.94,5.47,2.04,5.01,3.24,6.46,6.89,4.86,12.8-.49,1.81-1.17,3.57-1.7,5.37-1.06,3.64-1.09,7.24,1.05,10.52.77,1.18,1.84,2.31,3.03,3.04,2.21,1.36,4.57,2.52,6.94,3.57,1.6.71,2.91,1.58,3.71,3.16,1.7,3.33,3.63,6.56,5.09,10,1.63,3.84.9,7.76-.55,11.55-.3.78-.79,1.5-.96,2.29-.67,3.17,1.66,6.61,4.98,7.45.3.08.62.16.92.15,5.7-.13,10.8,1.99,15.82,4.34,1.58.74,3.07,1.76,4.44,2.85,1.95,1.56,3.74,3.31,5.63,4.96,3.21,2.8,2.52,7.38-1.38,9.03-1.82.77-3.67,1.49-5.44,2.38-2.21,1.1-2.57,2.83-1.02,4.81,1.6,2.04,3.63,3.47,6.32,3.64,2.08.13,4.17.1,6.26.21,2.08.11,4.16.23,6.23.46,6.22.68,10.16,7.37,9.24,13.1-.54,3.37-.48,6.85-.57,10.28-.06,2.15,1.01,3.88,2.8,4.96,2.23,1.35,4.59,2.45,7.3,2.55,2.4.09,4.79.31,7.18.43,3.55.18,6.71,1.44,9.65,3.34,3.22,2.08,3.71,4.84,1.48,7.99q-1.71,2.41-1.26,5.5c1.83.49,3.79,1.17,5.8,1.53,4.07.73,7.5,2.42,10.08,5.74,2.79,3.6,2.5,7.84-.9,10.89-1.31,1.18-2.85,2.11-4.24,3.21-2.43,1.91-2.32,3.6.21,5.4,1.87,1.33,3.68,2.73,5.5,4.13,1.18.91,1.54,2.14,1.35,3.61-.66,5.32-2.67,10.06-6.12,14.16-.72.86-1.71,1.51-2.61,2.2-1.49,1.14-3.03,2.21-4.52,3.36-3.49,2.68-4.74,6.25-3.97,10.52.42,2.34,1.01,4.65,1.58,7.19-1.09-.21-1.47-1.04-1.79-1.83-1.39-3.35-2.02-6.9-1.32-10.42.36-1.82,1.59-3.65,2.88-5.05,1.61-1.74,3.64-3.12,5.57-4.52,5.48-3.97,7.76-9.63,8.49-16.07.08-.73-.55-1.8-1.18-2.31-2.01-1.63-4.18-3.06-6.5-4.72-.89,1.95,1.12,2.76,1.04,4.42-.53-.13-1.3-.09-1.46-.38-.7-1.24-1.44-2.54-1.76-3.91-.35-1.5-.26-3.11-.33-4.68-.13-2.8-.57-3.51-3.21-4.24-2.28-.62-4.13-1.78-5.92-3.32-2.46-2.12-2.84-4.59-2.33-7.59.48-2.86.83-5.79.81-8.69-.03-4.13-2.69-6.85-5.79-9.12-.52-.38-1.38-.4-2.08-.4-6.41-.01-12.3-2.07-18.02-4.68-.7-.32-1.24-1.3-1.54-2.09-.39-1.03-.15-2.43-.76-3.21-.71-.91-2.06-1.31-3.23-2-1.82,2.45-3.96,4.14-7,4.42-2.27.21-2.69-.02-3.33-2.26-.09-.3-.13-.61-.2-.92-.9-3.62-1.54-4.19-5.29-4.57-1.97-.2-3.94-.32-5.91-.51-2.7-.25-4.19-1.62-4.32-4.34-.16-3.21-1.87-5.73-3.48-8.24-.61-.96-2.21-1.53-3.45-1.77-1.5-.29-3.12.05-4.68-.03-1.34-.07-2.69-.25-3.98-.59-1.82-.49-2.81-1.71-2.61-3.71.02-.21-.04-.43,0-.62,1.11-4.23-2.05-6.2-4.58-8.38-1.29-1.11-2.98-.65-4.46,0-1.23.54-2.43,1.15-3.78,1.8.94.75,1.9,1.52,2.86,2.28-5.85-.47-9.42-4.89-13.94-7.59.1,2.94.07,5.7.33,8.43.21,2.15.44,4.4,1.26,6.37,2.32,5.63,9.55,6.99,13.52,5.94,1.6-.43,3.27-.91,4.67-1.76,3.98-2.41,8.27-1.98,12.49-1.41,3.28.44,5.05,2.64,5.33,6.03.22,2.7.19,5.42.25,8.14.1,4.4,1.29,5.96,5.51,7.14,1,.28,2.1.38,3,.84,3.97,2.04,8.13,2.94,12.6,3.14,7.99.35,14.46,4.3,20.36,9.34.16.14.29.31.46.43,4.7,3.16,5.65,7.6,4.7,12.89-.4,2.23-.32,4.59-.13,6.87.18,2.15,1.1,3.92,3.47,4.71,3.16,1.06,6.22,2.42,9.35,3.55,4.81,1.74,8.78,4.86,12.62,8.03,5.06,4.18,4.83,11.17-.2,15.5-2.05,1.77-4.25,3.38-6.25,5.21-3.97,3.65-5.5,5.93-2.76,12.12.07.15-.02.38-.07,1.09-.71-.81-1.41-1.28-1.65-1.92-1.2-3.25-1.74-6.52.86-9.41,1.39-1.55,2.86-3.03,4.38-4.45,1.22-1.14,2.49-2.26,3.88-3.17,4.78-3.13,4.53-11.55-.74-14.88-5.51-3.48-10.95-6.84-17.24-8.63-.48-.14-.97-.26-1.67-.45-.11.89-.26,1.58-.27,2.27-.07,18.58-.03,37.17-.25,55.75-.06,4.88-.95,9.75-1.46,14.62-.09.83-.24,1.66-.21,2.49.47,12.89-1.08,25.59-3.5,38.21-.82,4.29-1.8,8.56-2.57,12.86-.28,1.55-.95,2.24-2.46,2.74-13.1,4.34-26.48,7.6-40.08,9.81-15.44,2.51-30.93,4.69-46.43,6.8-5.88.8-11.85.95-17.76,1.54-2.68.27-5.31.98-7.98,1.32-20.9,2.66-41.8,5.33-62.7,7.9-7.98.98-15.99,1.57-24.05,1.45-11.8-.17-23.6,0-35.39-.3-19.32-.49-38.57-1.95-57.58-5.59-10.87-2.08-21.62-4.84-31.77-9.32-6.37-2.81-12.36-6.5-18.49-9.85-4.03-2.2-8.03-4.46-12.01-6.74-5.33-3.04-10.64-6.13-16.08-9.27-3.05,2.32-7.04,2.06-10.78,2.73-1.32.24-2.71.1-4.06.16-3.82.17-6.82-1.46-9.93-4.7,1.21.44,1.78.55,2.25.84,4.78,2.97,9.97,3.03,15.1,1.63,5.51-1.51,10.99-3.31,15.96-6.26,1.51-.89,3.23-1.8,4.18-3.17,4-5.76,3.3-8.89-.62-12.79-1.85-1.84-3.82-3.55-5.73-5.33-1.58-1.48-2.56-3.28-2.86-5.43-.27-1.92.18-2.8,2.05-3.23,1.71-.39,3.5-.46,5.26-.61,3-.26,6.01-.41,9-.77.88-.1,1.8-.6,2.54-1.14,1.82-1.33,1.82-3.15.68-5.19-1.82-3.26-3.69-6.56-4.96-10.05-1.89-5.19-.54-8.99,3.9-12.36,1.48-1.13,3.08-2.27,4.8-2.88,3.16-1.12,5.18-3.46,7.11-5.91,1.32-1.68,1.16-6.28-.09-8.04-.36-.51-.75-1.02-1.21-1.43-2.25-2.03-3.08-4.49-2.95-7.55.21-5.04,2.89-8.11,7.98-8.45,1.77-.12,3.55-.02,5.32-.05,3.17-.04,3.79-.2,4.29-3.31.54-3.35.54-6.84.34-10.24-.07-1.27-1.27-2.55-2.16-3.66-.97-1.21-2.24-2.18-3.27-3.36-2.53-2.9-2.18-6.4-1.76-9.83.07-.6.81-1.18,1.34-1.64,2.13-1.84,4.25-3.71,6.48-5.42,4.82-3.69,5.96-8.7,4.8-14.25-.86-4.11-1.43-8.2-1.34-12.39l-.05.07c2.87-2.77,6.37-4.18,10.23-4.99,2.03-.42,3.98-1.22,5.93-1.95,1.57-.58,2.65-1.74,2.92-3.41.84-5.16.6-9.98-4-13.61-2.29-1.81-4.48-3.78-6.48-5.9-3.95-4.17-5.71-9.24-4.58-14.89.35-1.75,2.1-3.26,3.33-4.78,1.37-1.69,3.04-3.16,4.29-4.93,1.58-2.25,1.36-3.91-.67-5.82-1.74-1.64-3.63-3.14-5.56-4.56-2.54-1.87-4.23-4.2-5.07-7.28-.85-3.13-1.88-6.21-1.7-9.5.07-1.2-.35-1.95-1.39-2.52-3.73-2.05-6.89-5.02-11.06-6.4-3.08-1.02-5.14-3.48-6.67-6.31-.17-.31-.13-.74-.25-1.6.76.47,1.27.61,1.47.94,1.86,3,4.85,4.44,7.81,6.04,3.74,2.03,7.4,4.23,10.97,6.55.67.43,1.07,1.79,1.04,2.7-.1,3.08.57,5.99,1.38,8.92.82,2.96,2.42,5.25,4.89,7.04,1.86,1.34,3.67,2.77,5.37,4.3,2.76,2.5,3.2,5.6,1.09,8.68-1.23,1.79-2.74,3.42-4.33,4.91-3.73,3.48-4.29,6.72-2.33,11.49,1.27,3.1,3.03,5.61,5.68,7.65,1.81,1.4,3.38,3.11,5.05,4.68,2.64,2.48,4.16,5.45,3.93,9.16-.12,1.97-.27,3.95-.52,5.91-.26,2.07-1.59,3.41-3.46,4.09-2.45.89-4.98,1.53-7.43,2.39-2.05.72-4.09,1.5-6.05,2.43-1.43.68-2.11,1.98-1.95,3.62.17,1.76.38,3.52.56,5.28.3,2.89.67,5.78.87,8.67.31,4.4-1.48,7.87-4.88,10.59-1.79,1.43-3.52,2.95-5.32,4.37-3.32,2.62-3.94,5.92-1.54,9.47.86,1.28,1.99,2.43,3.16,3.44,2.31,1.98,3.35,4.47,3.38,7.43.03,3.85.21,7.69-1.38,11.4-.95,2.21.19,4.5,2.49,5.28,2.36.8,4.82,1.35,7.28,1.76,4.26.71,7.77,2.83,11.18,5.32,2.73,2,3.09,4.72,2.33,7.52-.75,2.76-3.33,3.62-5.9,3.88-6.29.62-13.14-2.79-16.74-8.52,1.99,1.35,4,2.67,5.97,4.05,3.12,2.18,6.59,3,10.35,2.9,2.14-.06,4.09-.72,4.83-2.78.74-2.07.24-4.11-1.65-5.62-3.05-2.44-6.3-4.46-10.2-5.22-1.84-.36-3.7-.65-5.52-1.08-2.93-.69-5.81-1.5-6.07-5.43-3.28,0-6.34-.36-9.29.07-6.39.94-7.27,6.69-4.7,11.4.24.45.61.87,1.01,1.19,3.18,2.63,3.09,6.2,2.74,9.78-.09.98-.6,2.04-1.24,2.81-2.12,2.58-4.38,4.94-7.72,6.14-2.96,1.06-5.45,2.99-7.24,5.71-1.38,2.1-1.57,4.27-.72,6.56,1.34,3.62,2.7,7.21,5.08,10.35,2.19,2.88,1.02,6.96-2.38,8.27-1.71.66-3.61.96-5.45,1.14-3,.29-6.04.27-9.05.53-2.53.22-3.23,1.38-1.86,3.53,1.16,1.81,2.85,3.28,4.33,4.87,1.77,1.9,3.66,3.71,5.35,5.68,1.68,1.97,1.91,4.32,1.27,6.8-.95,3.69-2.72,6.74-6.28,8.53-2.5,1.25-4.95,2.59-7.72,4.05.78.69,1.34,1.25,1.96,1.72.5.38,1.06.66,1.61.97,8.81,4.95,17.74,9.7,26.4,14.89,12.71,7.6,26.49,12.19,40.82,15.37,12.04,2.67,24.24,4.16,36.53,5.18,23.23,1.93,46.51,2.06,69.78,1.58,7.17-.15,14.34-1.16,21.48-2.03,12.22-1.48,24.41-3.2,36.62-4.75,10.03-1.27,20.08-2.43,30.12-3.65.39-.05.77-.18,1.5-.35-2.05-2.88-3.68-5.76-7.3-6.5-4.11-.83-6.43-3.57-7.92-7.27-1.14-2.83-1.97-5.69-1.87-8.8.21-6.05-2.41-11.1-5.91-15.78-1.43-1.92-3.07-3.7-4.39-5.69-2.93-4.42-3.66-9.52-3.9-14.63-.25-5.21-.13-10.44-.08-15.66.02-1.94-.23-3.65-1.64-5.18-2.52-2.74-3.36-6.09-3.42-9.8-.13-8.03-.45-16.05-.73-24.07-.09-2.45.3-4.81,1.38-6.99,2.07-4.2,3.84-8.63,6.45-12.48,2.61-3.84,5.81-7.42,9.29-10.5,6.09-5.39,12.59-10.32,18.92-15.44,3.9-3.16,8.01-5.95,12.59-8.13,3.17-1.51,6.32-3.39,8.92-5.73,6.23-5.61,13.12-10.32,19.68-15.47,5.21-4.09,11.13-6.95,16.82-10.2.53-.3,1.17-.4,1.76-.59.16-4.7-1.13-6.18-5.84-6.41-3.55-.17-6.96.03-10.29,1.87-3.1,1.71-6.58,2.53-10.28,1.63-6.17-1.51-9.98-5.67-10.58-11.98-.2-2.18-.17-4.38-.24-6.57-.13-3.78-1.27-5.31-4.91-6.16-3.76-.87-7.58-1.46-11.31-2.43-1.66-.43-3.29-1.3-4.7-2.3-2.21-1.57-4.21-3.42-6.3-5.15-2.89-2.41-4.6-5.62-6.13-8.97-.58-1.27-.42-2.32.49-3.45,1.86-2.32,1.82-3.49.09-5.8-.56-.75-1.25-1.41-1.77-2.19-1.3-1.94-2.94-2.62-5.34-2.28-2.79.39-4.09-.65-4.57-3.46-.26-1.5-.03-3.1.08-4.65.05-.71.42-1.4.54-2.11.41-2.33.21-2.69-1.94-3.54-1.26-.49-2.57-.89-3.8-1.45-2.87-1.31-3.69-3.31-2.64-6.36.46-1.34,1.42-2.59.72-4.47-.99-.17-2.09-.35-3.19-.53-4.45-.76-6.78-3.48-6.89-8.12-.05-2.06,0-4.13,0-6.52-1.49-.07-2.81-.13-4.13-.18-4.07-.18-5.74-1.67-5.94-5.68-.19-3.86-.12-7.72-.21-11.59-.04-1.71.5-3.09,2.11-3.86,1.26-.6,1.81-1.62,2.06-2.94.35-1.84.92-3.64,1.16-5.5.72-5.72-1.52-10.44-5.34-14.46-2.44-2.57-3.66-5.47-3.52-9.01.05-1.19.36-2.53-1.44-3.75.24,1.47.41,2.51.57,3.55.18,1.13.38,2.25.53,3.38.45,3.45-.63,6.23-3.23,8.64-2.17,2.01-3.48,4.64-4.01,7.63-.22,1.26-.04,2.17.91,3.08,1.73,1.66,3.33,3.46,5.01,5.16,2.44,2.48,2.4,5.95.21,8.66-6.03,7.5-9.46,15.86-7.76,25.7.15.89.85,2.04,1.61,2.43,4.36,2.19,8.64,4.59,13.72,4.91,6.1.39,11.59,6.45,11.66,12.58.02,1.91,0,3.82-.46,5.9-.32-.67-.74-1.32-.94-2.02-.65-2.31-1.09-4.68-1.86-6.95-1.5-4.45-4.52-7.05-9.33-7.63-5.16-.61-9.73-2.97-14.22-5.4-.9-.49-1.9-1.68-1.97-2.61-.37-4.56-1.12-9.21.32-13.67,1.17-3.63,2.3-7.34,4.94-10.34,1.36-1.55,2.43-3.35,3.54-5.1.85-1.32.45-3.67-.72-4.91-1.58-1.66-3.06-3.44-4.79-4.93-1.79-1.54-2.57-3.23-1.91-5.11-2.54-2.7-4.86-5.17-7.27-7.74-.3.45-.77,1-1.06,1.63-3.04,6.74-7.43,12.47-12.56,17.78-8.07,8.37-16.62,16.14-26.15,22.81-2.04,1.43-3.82,3.23-5.74,4.84-1.52,1.28-3.01,2.58-4.6,3.77-4.18,3.14-7.2,4.25-13.01,4.82,2.64,9.11,5.5,18.09,7.82,27.22,2.3,9.05,4.05,18.23,6.06,27.43-1.18-.41-1.45-1.59-1.74-2.58-1.44-4.9-2.88-9.8-4.12-14.75-.84-3.32-1.35-6.73-2.11-10.63-2.39,3.25-5.42,4.56-8.79,5.41-2.25.57-3.01,3.26-1.92,5.98.94,2.33,2.74,3.94,4.81,5.2,1.51.92,3.11,1.73,4.74,2.41,2.11.88,3.25,2.57,4.08,4.51,1.01,2.34.43,3.97-1.75,5.29-.8.49-1.61,1-2.48,1.33-2.33.87-4.56,1.71-6.19,3.85-.99,1.29-2.67,1.89-4.49,1.83-1.11-.03-2.23.42-3.36.47-1.85.08-3.71.02-5.86.02-.65,3.34-1.4,7-3.6,10.1-2.26,3.17-5.79,5.88-8.79,6.59,3.36-3.15,7.17-5.39,8.72-9.56.65-1.76,1.34-3.53,1.68-5.36.28-1.49.06-3.08.06-4.63-.22-.02-.44-.03-.66-.05-.19,2.15-.17,4.33-.61,6.42-.46,2.16-1.49,4.21-3.4,5.46-1.9,1.24-4,2.18-6.27,3.4-.18,1.31-.47,2.94-.62,4.59-.32,3.39-1.18,6.57-3.27,9.32-.91,1.2-1.24,2.47-1.2,4.05.12,5.49-1.74,9.95-6.95,12.64-3.33,1.72-6.47,3.81-9.77,5.58-2.95,1.58-6.15,1.77-9.44,1.32-2.66-.36-5.36-.84-7.98.73.04,2.59.8,4.66,2.83,6.32,3.65,3,3.74,8.69.12,11.73-1.27,1.06-1.64,2.31-1.96,3.74-.45,2.03-.71,4.14-1.46,6.06-1.44,3.65-1.4,7.33-.83,11.09.19,1.24.67,2.47.65,3.69-.07,3.54,1.92,5.12,5,6.11,4.35,1.39,7.43,4.46,10.06,8.1,2.39,3.31,2.48,9.27-1.85,12.31-2.37,1.67-5.01,2.95-7.56,4.33-.81.44-1.74.65-2.62.97-.74,2.99-.26,5.67,1.55,8.06,1.13,1.49,2.22,3.06,3.57,4.33,6.06,5.69,12.91,10.33,20.48,13.69,6.13,2.73,12.75,3.98,19.47,4.18,5.53.16,11.07.03,16.6.03,4.89,0,9.44-1.68,14.03-3,6.32-1.82,12.24-4.58,18.08-7.7,8.54-4.55,16.15-10.33,23.73-16.21,1.24-.96,2.35-2.14,3.71-2.88,5.46-2.96,10.1-7.03,14.89-10.87,3.24-2.59,6.19-5.6,9-8.67,9.73-10.62,19.12-21.59,30-31.07,6.37-5.55,13.15-10.62,19.72-15.94,2.19-1.77,4.42-3.52,6.38-5.53,5.08-5.21,11.14-9.1,17.15-13.06,7.75-5.11,15.5-10.23,23.3-15.27,2.27-1.47,4.65-2.8,7.08-3.99,1.4-.69,3.01-1.19,4.87.37-7.87,2.01-13.53,7.11-19.88,10.97-6.32,3.84-12.31,8.23-18.47,12.34-4,2.67-7.71,5.65-11.34,8.83-7.13,6.26-14.5,12.25-21.94,18.15-6.57,5.2-12.58,10.97-18.29,17.07-6.99,7.47-13.82,15.08-20.86,22.49-2.14,2.25-4.73,4.07-7.12,6.07-.72.6-1.46,1.19-2.22,1.74-2.94,2.14-5.9,4.26-8.84,6.4-1.77,1.29-3.55,2.56-5.27,3.91-7.56,5.91-15.22,11.6-23.63,16.34-8.47,4.78-17.46,7.88-26.78,10.23-2.21.56-4.51.93-6.78.99-9.17.25-18.34.55-27.45-1.19-7.96-1.52-14.98-5.06-21.55-9.6-3-2.07-5.86-4.38-8.6-6.78-4.04-3.55-7.06-7.72-6.76-13.91-4.01-.1-8.01.07-11.52-2.11-3.34-2.08-5.72-5.11-8.52-8.16,2.01.49,1.96.55,3.73,2.05,1.98,1.68,3.87,3.6,6.14,4.77,6.69,3.47,17.19,1.32,22.25-4.27,2.3-2.54,2.56-6.71.61-9.58-3.09-4.56-7.64-6.91-12.7-8.62-3.45-1.16-6.86-2.5-10.17-4-6.08-2.77-8.12-7.51-6.11-13.88,1.08-3.42,2.64-6.56,5.37-9.05,2.4-2.19,5.06-3.65,8.33-3.88.31-.02.62-.08.93-.13,4.78-.75,5.47-2.01,5.12-7.13-.13-1.96-1.79-2.97-3.35-3.85-2.55-1.43-5.16-2.73-7.68-4.21-1.83-1.07-3.32-2.52-4-4.64-.69-2.14-.4-3.02,1.49-4.2,3.55-2.21,7.4-2.48,11.47-2.01,3.4.4,6.87.82,10.26.53,4.41-.37,7.43-3.28,9.14-7.22,2.68-6.15,3.73-12.77,2.63-19.31-.83-4.91-3.5-9.22-7.6-12.6-4.66-3.85-10.08-6.25-15.25-9.15-2.06-1.16-4.1-2.56-5.74-4.25-2.9-2.99-2.23-6.82,1.57-8.39,2.44-1.01,5.23-1.32,7.9-1.6,4.98-.51,5.43-1.14,4.5-6.06-1-5.33-4.26-8.4-9.23-9.93-1.39-.43-2.9-.52-4.24-1.07-2.01-.82-3.98-1.78-5.84-2.89-1.31-.78-1.97-2.15-1.98-3.72-.02-2.38-.16-4.71,1.03-7.01.94-1.81,1.36-3.94,1.71-5.98.46-2.63-.85-4.46-3.48-4.97-1.83-.36-3.73-.41-5.59-.64-4.86-.61-9.09-2.45-11.97-6.57-1-1.44-1.72-3.1-2.42-4.72-.88-2.06-2.19-3.22-4.56-2.85-.61.1-1.36.19-1.85-.07-.85-.47-2.11-1.14-2.21-1.87-.51-3.59-1.09-7.27,1.24-10.58,2.56-3.65,2.41-5.38-.42-8.89-2.81-3.49-5.6-7-8.3-10.57-1.78-2.36-3.14-4.88-2.82-8.07.16-1.52.51-2.77,2.07-3.07,2.05-.4,2.65-1.86,3.01-3.55.26-1.22.37-2.47.48-3.72.14-1.59-.46-2.81-1.81-3.73-2.93-1.99-5.77-4.1-8.73-6.03-2.28-1.49-3.58-3.45-3.69-6.16-.05-1.15-.05-2.3-.02-3.45.05-1.58,0-3.09-.98-4.48-.46-.64-.68-1.54-.76-2.35-.34-3.38-1.81-6.26-4.18-8.55-2.84-2.73-2.99-6.08-2.71-9.56.16-2.02,2.37-3.62,5.13-3.71,2.71-.09,5.43.07,8.14.11.61.01,1.22,0,1.83,0,1.1-1.49.17-2.33-.85-3.13-2.21-1.74-4.49-3.4-6.62-5.23-.73-.63-1.31-1.62-1.57-2.55-.42-1.51.34-2.6,1.78-3.22,2.34-1.01,3.25-2.54,2.57-5.23-.6-2.33-.47-4.72,1.53-6.68,1.18-1.17,1.43-2.69.5-4.31-.45-.78-.65-1.74-.79-2.65-.23-1.54.59-2.38,1.93-3.17,2.32-1.37,2.69-3.39,1.37-5.59-2.5-4.16-1.86-8.35-.1-12.54.16-.38.43-.71.67-1.06,1.77-2.55,3.27-5.05,3.52-8.42.31-4.14,3.7-7.15,7.87-7.69,1.77-.23,2.91-1.23,3.93-2.32,3.6-3.85,8.04-3.96,12.74-3.18.35.06.66.34.91,1.06-1.06,0-2.14.16-3.17-.03-6.38-1.15-13.38,6.37-14.88,10.91-.73,2.21-.25,3.66,1.82,5.07,2.37,1.62,3.45,3.82,3.42,6.62-.05,5.33-.25,10.66-2.84,15.51-.73,1.37-.15,2.38.42,3.49,2.48,4.85,4.43,9.91,5.57,15.24.36,1.69.43,3.45.69,5.63,3.43-2.68,6.61-5.16,10.76-5.77,3.94-.58,7.87-.99,11.79.05-.23-.18-.46-.36-.8-.62.74-1.35,1.96-1.76,3.35-1.57,2.19.3,4.22.98,5.87,2.65.91.92,2.14,1.53,3.24,2.25.35.22.76.35,1.14.51,7.56,3.24,9.63,8.04,9.06,15.74-.36,4.86-.04,9.56.59,14.31.23,1.76.64,3.5.77,5.26.12,1.55.27,3.18-.1,4.66-1.64,6.66.23,12.12,5.24,16.65l-.05-.06Zm151.57-29.97c4.38,3.69,8.94,7.22,14.2,9.5,6.56,2.84,9.98,7.33,9.02,14.63-.18,1.41-.63,2.79-1.06,4.15-.35,1.09-.92,2.1-1.28,3.19-1.16,3.52-.9,4.1,2.89,6.3.35-4.76,2.97-8.12,6.39-11,1.35-1.14,1.78-2.62,1.94-4.41.37-4.19-1.24-7.48-3.89-10.5-2.21-2.51-4.73-4.33-8.17-4.76-4.31-.53-8.15-2.44-12.04-4.25-2.53-1.18-5.22-2.03-7.84-3.03-.12-1.76-.36-3.52-.33-5.27.05-3.03.55-5.89,2.49-8.48,1.45-1.93,1.71-4.46,1.51-6.88-.27-3.38-3.4-6.45-6.79-6.93-1.64-.23-3.25-.62-4.88-.91-2.23-.39-3.69-1.73-4.72-3.68-.52-.99-1.18-1.92-1.77-2.88-.29-1.2-.43-2.45-.89-3.58-1.19-2.89-2.42-5.77-3.83-8.55-1.03-2.03-1.99-4.37-3.67-5.74-4.54-3.73-8.49-8.56-14.89-9.38,1.29-1.4,2.4-1.62,4.21-.72.93.46,1.84,1.01,2.67,1.63,3.99,2.99,8.73,5.32,11.25,9.76,2.71,4.77,4.67,9.97,6.96,14.99.04.09.04.21.06.31,1.41,4.97,3.13,6.37,8.37,6.91,1.24.13,2.49.31,3.68.65.77.22,1.64.62,2.13,1.21,2.23,2.69,3.92,5.66,3.96,9.31.01,1.57-.14,3.15.05,4.69.21,1.63.62,3.26,1.17,4.81.65,1.85,2.01,2.81,4.1,2.67,1.45-.1,2.92,0,4.38.07,2.8.13,3.69.87,4.2,3.63.25,1.33.35,2.69.42,4.04.14,2.46.7,2.92,3.09,2.27,1.49-.41,2.95-.94,4.34-1.39-2.68-3.1-5.27-6.18-7.96-9.18-1.26-1.41-1.85-2.98-1.85-4.84,0-2.51.09-5.02-.1-7.52-.11-1.41-.4-2.96-1.11-4.13-2.45-4.03-5.5-7.56-9.14-10.63-2.15-1.82-4.53-3.25-7.21-3.51-5.43-.54-8.03-4.33-10.56-8.33-.37-.59-.62-1.37-.64-2.06-.09-4.51-2.52-7.84-5.42-10.95-2.48-2.66-5.33-5-7.02-8.34-.67-1.33-1.89-1.86-3.39-1.78-2.29.12-4.58.2-6.88.27-7.63.23-13.67-4.93-14.46-12.51-.29-2.8-1.38-5.09-3.73-6.54-3.09-1.91-6.32-3.61-9.52-5.34-2.33-1.26-4.79-1.33-7.28-.54-3.62,1.15-7.33,1.34-11.11,1.5-4.28.18-6.6-2.04-8.21-5.49-.88-1.89-1.59-3.86-2.28-5.82-1.34-3.83-3.9-6.6-7.3-8.68-2.97-1.82-6.01-1.76-9.47-.46,6.64.9,7.04,1.2,10.01,7.29.23.47.44.94.69,1.41,2.63,4.98,5.34,9.91,7.86,14.94,1.21,2.4,3.21,3.68,5.6,4.05,3.07.47,6.23.52,9.35.54,3.12.02,6.25-.3,9.37-.34,4.18-.05,7.7,2.71,8.3,6.9.81,5.67.71,11.26-3.15,16.1-.96,1.2-1.73,2.63-2.28,4.07-1.1,2.84-.24,5.9,2.22,7.1,3.65,1.77,7.35,3.61,11.24,4.64,4.39,1.16,7.32,3.74,9.7,7.31,2.67,4.02,3.47,8.71,4.41,13.28.6,2.93.49,6.04-1.16,8.83-.37.62-.67,1.33-.79,2.03-1.25,7.18-3.19,14.25-3.13,21.64.02,3.12,1.24,5.37,3.52,7.28,1.19,1,2.26,2.16,3.37,3.25,2.87,2.79,5.74,5.58,8.72,8.49.5-3.24,4.19-3.19,5.68-5.53-.29-.55-.42-1.11-.78-1.44-1.84-1.69-3.61-3.49-5.63-4.93-3.04-2.16-4.84-4.82-4.64-8.65.04-.83-.18-1.71,0-2.5.28-1.17.58-2.45,1.27-3.39,2.16-2.96,2.29-6.16.11-9.1-.56-.76-1.08-1.54-1.68-2.26-3.34-4.05-3.33-8.31-.96-12.81,1.31-2.49,2.56-5.03,3.65-7.62,1.71-4.04,1.28-7.88-1.19-11.6-2.09-3.15-5.09-3.68-8.47-3.51-.21.01-.42,0-.63-.01-3.72-.21-4.38-.83-5.55-4.3-1.31-3.88-1-7.86-.86-11.8.1-2.82-1.17-4.6-3.46-5.77-1.57-.8-3.31-1.24-4.95-1.9-.49-.19-.91-.57-1.75-1.12,3.16-.68,5.45.37,7.6,1.57,2.79,1.56,4.57,3.81,4.43,7.31-.11,2.81-.21,5.68.23,8.44.97,6.15,1.16,5.42,6.16,5.67.31.02.63.03.94.03,3.17.01,5.55,1.45,7.41,3.98,3.26,4.43,3.79,9.16,1.59,14.15-1.26,2.86-2.75,5.62-4.09,8.45-1.57,3.3-1.38,6.46.88,9.42.82,1.08,1.57,2.23,2.45,3.25,1.87,2.17,2.16,4.68,1.68,7.35-.22,1.23-.81,2.43-.83,3.65-.04,2.89.11,5.79.31,8.67.11,1.52,1.12,2.29,2.6,2.73,1.78.53,3.48,1.36,5.22,2.04,1.29.5,1.68,1.51,1.5,2.76-.36,2.57-.69,5.15-1.19,7.69-.19.99-.78,1.92-1.27,2.83-.38.71-.88,1.36-1.6,2.44,1.67.8,3.15,1.45,4.57,2.21.69.37,1.57.81,1.87,1.45,1.67,3.58,3.16,7.25,4.78,10.86.47,1.04,1.2,1.97,2,3.25.52-.84.77-1.16.93-1.52,1.45-3.37,3.28-6.49,5.65-9.33.83-.99,1.43-2.38,1.61-3.66,1.26-8.82-2.88-17.05-11.12-20.28-1.84-.72-3.75-1.43-5.36-2.54-4.32-2.97-7.53-6.78-6.86-12.46.46-3.92.94-7.94,2.19-11.64,1.29-3.81.34-8.2,3.17-11.56.28-.33.18-1,.19-1.52.04-1.36.03-2.71.07-4.07.09-3.53-1.18-6.56-3.57-9.07-1.44-1.51-3.08-2.81-4.63-4.21-.57-.52-1.11-1.08-1.75-1.7,1.36-.82,2,.1,2.69.61,3.45,2.58,6.53,5.49,8.4,9.47.14,1.23.21,2.47.44,3.68.6,3.2.24,6.3-1.4,9.07-1.32,2.23-1.36,4.27-.04,6.69,1.07,0,2.21.05,3.34-.01,1.48-.08,2.66.53,3.6,1.57,1.78,1.98,3.05,4.17,2.98,7-.09,3.13-.02,6.26-.01,9.39.01,4.6,1.89,6.84,6.35,7.83,2.33.52,4.65,1.16,6.91,1.92,2.34.79,3.21,2.64,3.49,5.05.38,3.22-1.21,5.6-2.89,8.01-1.87,2.69-1.94,3.83.7,5.74,2.82,2.04,6.01,3.57,9,5.3.74-2.7,1.01-5.27,2.12-7.39,1.81-3.46,1.2-6.92.73-10.38-.25-1.86-1.47-3.46-3.09-4.56-1.29-.88-2.61-1.75-4.02-2.39-5.27-2.39-9.69-6.08-14.46-9.24-1.76-1.17-2.79-2.92-3.13-4.88-.58-3.27-1.07-6.59-1.18-9.9-.15-4.52-.49-8.93-2.56-13.05-.08-.17.19-.51.34-.87,1.71.95,2.25,2.59,2.53,4.16.62,3.48.99,7,1.44,10.5.38,2.99.6,6.01,1.17,8.95.22,1.1,1.24,2.05,1.9,3.07Zm104.07,169.17c-.14-.39-.26-.79-.42-1.16-1.5-3.53-1.08-4.75,2.38-6.42,1.78-.86,3.63-1.57,5.42-2.41,2.45-1.15,2.94-4.34.97-6.11-2.01-1.8-3.98-3.66-6.05-5.39-1.03-.85-2.19-1.59-3.39-2.17-2.15-1.03-4.39-1.89-6.58-2.84-2.36-1.03-7.07-1.5-9.76-.9.17.9.52,1.82.48,2.72-.07,1.91.45,3.84-.85,5.71-1.83,2.64-3.43,5.45-4.89,8.32-1.67,3.27-.04,7.3,3.34,7.92,2.18.4,4.67.42,6.74-.25,3.57-1.16,6.71-.94,9.78,1.12.95.63,1.92,1.22,2.89,1.82.45,3.49.22,6.82-1.73,9.94-1.55,2.48-1.43,5.37-1.47,8.21-.02,1.88.93,2.99,2.53,3.51,1.16.38,2.44.53,3.67.53,2.5,0,5.01-.1,7.5-.27,1.64-.11,3.02.31,4.39,1.23,2.59,1.74,5.31,3.29,7.96,4.93,1.15.71,2.55,1.39,2.32,3.02-.35,2.57,1.03,3.55,3.21,4.07.8.19,1.5.79,2.29.98,3.52.85,7.05,2.21,10.6,2.3,5.91.15,11.67,5.18,11.47,11.07-.11,3.42-.7,6.82-.92,10.24-.08,1.17-.07,2.69.58,3.51,1.55,1.94,3.33,3.88,5.9,4.44,3.01.65,5.11,2,5.13,5.46,2.14-1.61,4.16-2.93,5.95-4.5,3.46-3.04,3.53-6.73.47-10.07-2.08-2.27-4.72-3.34-7.63-4-1.72-.39-3.45-.74-5.12-1.29-3.23-1.07-4.23-3.92-2.48-6.87.26-.45.64-.83.94-1.25,2.15-2.98,1.72-4.62-1.47-6.55-3.92-2.36-8.22-2.98-12.65-2.84-3.24.1-6.19-.65-9.05-2.04-3.31-1.6-5.26-4.21-5.28-7.87-.03-3.43.19-6.88.66-10.28.67-4.82-1.64-9.26-6.31-10.43-2.88-.72-5.98-.76-8.98-.8-4.71-.05-9.18-.54-12.53-4.36Zm-69.07,217.53c3.59-.32,7-.47,10.38-.94,15.69-2.22,31.39-4.34,47.03-6.86,13.08-2.11,25.96-5.18,38.62-9.17,2.32-.73,3.52-1.86,3.88-4.2.62-4.02,1.43-8,2.06-12.02.94-5.97,2.08-11.93,2.61-17.94.74-8.51.99-17.06,1.48-25.59.11-1.98.43-3.95.46-5.93.23-19.31.42-38.63.62-57.94.01-1.15.08-2.32-.1-3.44-.14-.86-.43-1.88-1.02-2.44-2.07-1.95-2.84-4.26-2.73-7.04.13-3.55.22-7.1.14-10.64-.02-1.05-.37-2.39-1.07-3.09-4.83-4.8-9.91-9.36-16.73-11.09-3-.77-6.17-.88-9.25-1.36-1.73-.27-3.48-.55-5.14-1.08-2.68-.85-5.26-2-7.93-2.85-4.46-1.42-6.53-4.03-6.64-8.7-.04-1.51-.05-3.01-.07-4.86-1.05.46-1.64.64-2.16.95-5.23,3.21-10.81,5.81-15.67,9.69-6.35,5.08-13.06,9.69-19.15,15.12-2.76,2.46-6.12,4.37-9.45,6.06-3.65,1.86-7.15,3.86-10.32,6.45-6.39,5.21-12.67,10.57-19.21,15.58-4.22,3.23-7.59,7.18-10.48,11.49-2.42,3.6-4.27,7.61-6.16,11.54-1.46,3.03-2.07,6.28-1.85,9.72.47,7.28.88,14.56,1.06,21.85.08,3.31.85,6.17,3.17,8.54,1.41,1.44,1.86,3.16,1.83,5.14-.08,5.01-.03,10.02-.05,15.04-.03,7.44,1.81,14.15,6.98,19.84,4.88,5.37,7.3,11.79,7.08,19.15-.1,3.45,1.31,6.52,3.05,9.39.98,1.61,2.32,3.01,4.32,3.39,3.26.62,5.75,2.32,7.54,5.11.13.21.48.28,1.05.58-.07-1.48-.11-2.69-.19-3.91-.41-6.47-.45-12.94.45-19.37,1.36-9.71,2.55-19.45,4.25-29.1.71-4.06-.12-7.6-1.44-11.24-.25-.69-.59-1.34-.83-2.03-1.14-3.31-2.26-6.63-3.39-9.95,3.14,3.11,3.96,7.36,6.12,11.42.92-3.23,1.73-6.06,2.54-8.89.04,3.3-.24,6.49-.53,9.67-.48,5.29-.82,10.6-1.5,15.87-1,7.75-2.62,15.44-3.3,23.21-.68,7.78-.55,15.63-.73,23.45-.02,1.01.23,2.03.4,3.42Zm42.84-367.1c0-2.22.12-3.78-.02-5.32-.43-4.4-1.26-8.64-4.44-12.09-3.58-3.88-7.91-6.42-12.93-7.86-5.61-1.6-11.25-3.1-16.86-4.71-1.6-.46-3.17-1.04-4.69-1.71-2.59-1.15-3.12-2.53-1.98-5.21.57-1.34,1.27-2.65,2.1-3.84,3.76-5.43,4.1-11.5,3.26-17.72-.34-2.55-1.13-5.07-1.93-7.53-.79-2.42-2.61-3.63-5.2-3.8-3.01-.2-6.02-.69-9.03-.77-3.75-.1-7.18-1.16-10.51-2.74-5.9-2.8-7.1-6.09-5.57-12.5.26-1.11.67-2.22.7-3.34.09-3.13.03-6.27.01-9.4,0-2.06-.59-4.01-1.98-5.48-5.1-5.4-10.96-8.78-18.84-7.46-4.96.83-10,.71-14.85-.92-3.57-1.2-4.43-2.55-4.35-6.28.04-1.98.29-3.95.32-5.93.06-3.43-1.46-5.96-4.41-7.75-2.76-1.68-5.45-3.48-8.15-5.27-1.79-1.19-3.7-1.78-5.88-1.74-2.81.04-5.65.05-8.43-.33-1.87-.26-3.54-.11-5.12.77-1.72.97-3.4,2.02-4.98,3.21-1.23.93-2.46,1.46-4.01,1.41-2.4-.07-4.81.07-7.2-.04-5.14-.24-9.92-1.39-13.39-5.66-.65-.81-1.47-1.48-2.2-2.23-4.02-4.08-8.92-6.05-14.61-6.11-2.61-.03-5.22.05-7.83-.02-4.43-.12-8.41,1.26-12.15,3.51-2.99,1.8-6,3.56-8.97,5.33-.03-.04.07.17.23.27,4.26,2.46,8.38,5.05,11.04,9.42.44.72,1.38,1.48,2.17,1.59,2.99.41,6.01.83,8.59-1.54,1.22-1.12,2.68-1.99,4.1-2.86,3.82-2.34,11.23-2.88,15.84,1.3,2.35,2.13,4.32,4.51,5.39,7.56.69,1.97,1.46,3.91,2.3,5.82,1.42,3.24,3.66,5.37,7.49,4.89,3.09-.39,6.15-1,9.24-1.34,2.35-.26,4.9-.87,7.06-.25,4.51,1.28,8.71,3.49,12.4,6.49,2.22,1.8,3.4,4.11,3.7,6.98.63,6.12,5.54,10.92,11.7,11.35,2.8.2,5.64.14,8.45.03,1.89-.08,3.35.58,4.18,2.17,1.54,2.94,3.92,5.11,6.23,7.38,3.66,3.6,6.09,7.71,6.98,12.96.73,4.23,3.75,7.41,8.02,8.27,4.62.93,8.39,2.94,11.65,6.22,5.25,5.28,9.95,10.78,8.59,19.04-.02.1,0,.21,0,.31,0,3.02.75,5.71,2.98,7.92,1.1,1.09,1.96,2.44,2.97,3.62,1.61,1.88,3.61,3.24,5.9,4.37-2.12-1.98-2.18-4.45-2.1-6.98.04-1.25.04-2.51,0-3.76-.2-5.67,2.28-10.58,4.76-15.35,1.21-2.33,1.23-4.56,1.22-6.9,0-.55-.86-1.34-1.5-1.61-2.19-.93-4.43-1.78-6.71-2.46-1.98-.59-4.01-1.09-6.06-1.3-3.25-.34-6.41-.78-9.18-2.69-2.11-1.45-3.36-3.26-3.3-5.99.07-3.02-.22-6.04-.31-9.06-.11-3.7-1.72-6.44-5.17-7.87-2.11-.87-4.29-1.66-6.52-2.13-1.68-.35-3.61-.57-5.21-.1-3.9,1.14-5.7-.61-7.1-3.33-.77-1.48-1.28-3.13-2.22-4.48-1.49-2.13-2.43-4.35-2.39-6.97.03-1.79-.91-2.87-2.54-3.54-1.73-.72-3.45-1.5-5.1-2.39-3.49-1.88-6.98-2.5-10.79-.89-2.15.91-2.6.51-3.61-1.55-1.35-2.77-1.78-5.77-2.14-8.76-.26-2.15-1.22-3.85-3.01-4.87-3.81-2.18-7.77-4.18-12.35-3.73-1.73.17-3.43.75-5.1,1.29-3.11,1.01-5.18.14-6.53-2.89-.17-.38-.36-.76-.47-1.16-.43-1.53-1.5-2.29-3.01-2.2-2.59.15-5.24.13-7.72.75-2.23.56-3.85.12-5.41-1.36-4-3.81-8.73-5.9-14.29-6.01-.86-.02-1.72-.17-2.59-.25-.02-.27-.03-.53-.05-.8.71-.17,1.42-.47,2.14-.49,5.95-.15,10.93,2.43,15.37,6,1.47,1.18,2.65,1.64,4.47,1.36,2.56-.39,5.16-.48,7.75-.64,2.63-.17,4.22,1.05,5.17,3.57,1.15,3.06,2.21,3.46,5.3,2.2,2.79-1.14,5.64-1.78,8.54-.95,2.7.77,5.32,1.85,7.9,2.97,3.17,1.37,5.3,3.65,5.67,7.27.13,1.24.31,2.49.58,3.71.4,1.8.75,3.64,2.14,5.11.5-.12.94-.14,1.28-.32,2.71-1.44,5.45-1.26,8.16-.09,2.87,1.24,5.67,2.65,8.56,3.84,2.29.94,3.45,2.37,3.46,4.97,0,1.49.59,3.05,1.2,4.45.83,1.9,1.92,3.68,2.91,5.52.34.64.68,1.29,1.07,1.9.82,1.28,1.82,1.72,3.45,1.31,1.57-.39,3.34-.57,4.91-.26,2.84.57,5.65,1.41,8.37,2.43,4.52,1.69,6.63,5.14,6.65,9.94,0,2.51.25,5.02.13,7.51-.14,3.01,1.19,5.05,3.77,6.26,1.38.65,2.92,1.04,4.42,1.37,3.14.68,6.39,1.01,9.45,1.94,2.16.66,4.1,1.87,6.45,2.18,2.33.3,2.85,1.21,2.92,3.66.09,3.04.31,6.11-2.26,8.45-.21.19-.27.56-.39.84-2.04,4.83-3.54,9.69-3.31,15.11.15,3.47.75,6.23,3.53,8.51,1.43,1.18,2.8,2.12,4.67,2.21,5.54.28,10.94,1.32,16.36,2.51,4.29.94,7.57,3.33,10.89,5.85,1.29.97,1.54,2.25,1.71,3.8.51,4.68-1.22,8.63-3.7,12.31-2.02,2.99-2.38,6.12-1.69,9.81,1.75.69,3.54,1.53,5.41,2.12,3.59,1.12,3.91,1.44,3.96,5.26.03,2.24,0,4.47,0,6.71.16.13.32.27.48.4.25-.45.41-.99.76-1.33,2.58-2.53,2.73-3.25,1.03-6.52-.53-1.02-1.24-1.95-1.69-3-.78-1.82-2.21-3.4-2.44-5.94.8.38,1.42.47,1.6.8,1.7,3.1,3.5,6.17,4.9,9.41.86,1.99.53,4.1-1.41,5.63-1.69,1.34-2.34,3.2-2.24,5.27.11,2.18.25,4.39.7,6.51.77,3.61,2.92,5.53,6.63,5.37,5.69-.25,10.35,1.88,14.65,5.27,1.88,1.48,2.33,2.99,1.33,5.19-.56,1.23-1.45,2.34-1.84,3.62-.38,1.24-.75,2.8-.31,3.9.63,1.6.91,3.14,1.08,4.81.3,3.03,2.83,5.25,5.53,4.61,4.16-.98,8.25-2.13,12.66-.98.84-1.95,1.6-3.65,2.32-5.37.44-1.06.89-2.12,1.2-3.22,1.55-5.55.17-9.58-4.51-12.85-1.44-1.01-3.02-1.9-4.67-2.51-3.02-1.13-6.1-2.14-9.22-2.96-6.88-1.8-12.56-5.51-17.44-10.57-2.6-2.69-3.88-5.91-3.84-9.62.02-1.66.11-3.34.37-4.99,1.16-7.52,2.47-15.02,3.55-22.54.38-2.67.45-5.41.3-8.1-.12-2.11-.57-4.29-2.57-5.89q1.14,9.93-.86,12.33Zm88.11,141.92c.32-3.84,1.03-6.71,3.46-8.9.56-.51,1.02-1.45,1.03-2.21.06-3.13.4-6.35-.22-9.36-2.06-10.07-8.44-16.76-17.6-20.94-5.97-2.73-12.02-5.3-18-8.01-3-1.35-5.56-3.34-7.49-6.02-1.82-2.53-3.28-5.2-4.5-8.14-1.02-2.45-.75-4.3.01-6.47.59-1.67,1.09-3.37,1.54-5.09.91-3.45.25-6.58-1.89-9.46-2.91-3.92-6.75-6.51-11.38-7.88-1.86-.55-2.86-1.58-3.02-3.48-.45-5.35-2.94-9.95-5.47-14.51-.65-1.16-1.63-2.15-2.53-3.15-2.15-2.41-4.45-4.7-6.46-7.22-.94-1.17-1.78-2.72-1.94-4.17-.45-4.16-.56-8.36,1.43-12.27,1.37-2.7,2.64-5.45,4.13-8.08,1.15-2.03,1.43-4.1,1.02-6.33-1.23-6.63-5.06-11.69-10.25-15.58-3.38-2.54-7.33-4.37-11.12-6.34-4.97-2.58-9.39-5.87-13.08-10.05-2.74-3.1-2.93-5.7-.62-9.07,1.82-2.64,2.31-5.43,2.41-8.54.15-4.21-1.61-6.99-5.33-8.69-.66-.3-1.31-.66-1.99-.91-2.91-1.08-4.64-3.02-4.91-6.22-.23-2.79-1.57-5.17-3.15-7.4-.33-.46-1.05-1.13-1.37-1.02-1.57.52-2.28-.68-3.26-1.36-2.91-2.02-5.63-4.45-8.78-5.95-5.91-2.79-12.08-5.04-18.45-7.65.27,3.68.68,7.16,1.73,10.51,1.24,3.97,4.02,6.56,7.97,7.73,1.88.56,3.87.78,5.83,1,2.3.26,4.54.56,6.5,1.96,4.12,2.95,7.77,6.31,10.13,10.9.81,1.58,1.79,3.06,2.64,4.62,2.78,5.05,3.72,10.31,1.97,15.95-.85,2.73-.68,5.4,1.4,7.61,1.72,1.82,3.46,3.62,5.29,5.31,2.67,2.47,5.6,4.69,8.13,7.31,3.4,3.52,6.47,7.36,9.79,10.95,2.25,2.43,3.34,5.18,3.42,8.47.11,4.71-.24,9.38-.99,14.02-.55,3.39-.87,6.84-1.68,10.17-.92,3.79-1.31,7.58-1.36,11.46-.03,2.89.9,5.39,2.78,7.44,4.44,4.84,9.57,8.68,16.02,10.49,2.91.82,5.82,1.63,8.7,2.56,3.82,1.24,7.38,3.03,9.97,6.2,1.01,1.24,1.97,2.85,2.12,4.38.43,4.37.34,8.74-1.91,12.79-1.05,1.89-2,3.87-1.39,6.22.16.61-.21,1.44-.5,2.09-2.52,5.59-1.22,11.05.72,16.4.68,1.87,2.12,3.45,4.09,4.1,5.21,1.71,10.47,3.27,15.71,4.89.11-.25.21-.49.32-.74-1.6-.82-3.17-1.69-4.81-2.43-3.56-1.61-6.73-3.78-9.48-6.53-.72-.72-1.5-1.6-1.75-2.53-.86-3.3-.61-6.64.35-9.88.35-1.19,1.2-1.89,2.6-1.05-1.92,2.3-2.57,8.6-1.18,10.97.26.44.64.82,1.01,1.19,2.7,2.65,5.72,4.84,9.17,6.46,1.69.79,3.39,1.61,4.97,2.6,4.67,2.94,9.52,5.1,15.26,4.41,2.07-.25,3.95.66,5.4,2.07,2.37,2.29,3.11,5.42,3.53,8.52.35,2.59.12,5.17-2.09,7.17-1.07.97-1.82,2.27-2.78,3.37-1.25,1.42-2.04,2.99-1.36,4.85.65,1.78,2.5,1.98,3.94,2,3.1.05,5.43,1.21,7.56,4.51ZM21.3,505.64c6.59-.56,11.13-3.58,14.64-8.55,2.37-3.36,2.83-6.98,1.7-10.72-1.18-3.9-3.67-6.61-7.96-7.53-2.63-.56-5.16-1.64-7.68-2.65-1.35-.54-2.75-1.39-2.89-3.04-.34-3.98-.49-5.82,3.17-8.08,1.23-.76,2.53-1.49,3.89-1.96,3.25-1.14,6.52-2.21,9.83-3.14,6.64-1.88,8.13-9.82,3.62-14.24-1.26-1.23-2.39-2.64-3.33-4.13-1.59-2.5-3.6-4.55-5.8-6.51-1.53-1.36-2.87-3.05-3.89-4.82-1.96-3.41-1.15-8.46,1.62-11.26,3.34-3.37,7.45-5.37,12.08-6.13,6.33-1.04,12.48-2.46,17.78-6.36,3.11-2.29,6.33-4.43,9.43-6.73,1.08-.8,2.28-1.7,2.87-2.84,2.42-4.71,5.28-9.27,5.81-14.74.33-3.4.25-6.46-2.59-9.15-3.19-3.03-3.68-9.31-1.69-13.46,1.8-3.76,4.85-5.54,8.88-6.01,4.05-.47,7.78-2.28,9.53-5.8,3.34-6.72,3.69-11.24-1.6-15.89-.16-.14-.31-.29-.43-.46-3.11-4.63-6.05-9.31-3.99-15.73-3.12,2.52-5.52,5.09-7.6,7.96-1.97,2.71-1.91,4.53.19,7.32,1.78,2.37,1.32,4.94.59,7.47-.69,2.38-2.71,2.43-4.78,2.62-4.72.44-6.72,3.31-5.11,7.72.97,2.67.98,5.29,1.04,7.99.05,1.84-.61,3.24-2.1,4.28-.77.54-1.5,1.15-2.32,1.59-1.35.72-2.02,1.73-1.85,3.29.41,3.83.42,7.75,1.31,11.46,1.01,4.2.58,7.64-2.28,11.02-1.71,2.03-3.45,2.75-5.95,2.39-3.62-.52-4.41.34-4.41,3.96,0,2.17-.04,4.42-.6,6.49-.8,2.93-2.68,3.97-5.69,3.61-1.55-.18-3.07-.61-4.6-.91-5.1-.99-9.74.04-13.86,3.22-1.66,1.28-1.77,1.99-.71,3.69.33.52.73,1.04,1.21,1.42,1.03.82,1.12,1.9,1.15,3.08.07,2.39-1.1,4.19-2.65,5.82-3.15,3.31-4.61,7.11-3.61,11.7.2.92.22,1.88.51,2.76,1.48,4.57,2.78,9.23,7.58,11.71.77.4,1.67,1.65,1.58,2.41-.46,4.12-.7,8.54-5.41,10.43-1.8.72-3.75,1.14-5.67,1.5-2.04.39-4.21.24-6.15.87-4.17,1.35-4.81,5.2-3,8.34,1.92,3.32,4.24,6.47,7.63,8.57,1.6.99,3.12,2.09,4.7,3.11,3.58,2.3,6.37,5.37,8.7,8.89,1.04,1.58,1.7,3.21.93,4.93-1.24-2.1-2.4-4.26-3.75-6.29-2.56-3.85-6.45-6.21-10.22-8.61-3.71-2.35-6.53-5.49-8.93-9.07-3.3-4.9-1.11-10.39,4.62-11.62.91-.19,1.87-.16,2.8-.26,1.66-.17,3.37-.16,4.96-.58,2.64-.7,5.19-1.77,6.27-4.6.52-1.35.72-2.83,1.09-4.24.3-1.16-.07-1.97-1.05-2.68-1.84-1.31-3.61-2.72-5.5-4.16-.17.48-.42,1.14-.62,1.81-1.76,6.19-5.76,9.98-12.08,11.3-.92.19-1.83.42-2.72.72-3.89,1.36-5.91,4.08-6.05,8.16-.06,1.56-.02,3.13-.08,4.7-.2,5.2,2.46,8.67,6.75,11.13,2.26,1.3,4.62,2.43,6.83,3.8,2.74,1.7,5.66,3.25,7.97,5.44,3.76,3.56,3.48,8.81-.18,12.48-.51.51-1.04.98-1.87,1.77Zm218.96-171.73c1.54-.82,2.51-1.42,3.54-1.86,3.18-1.36,3.41-2.74,1.19-5.82-.58-.81-1.5-1.43-2.38-1.94-1.35-.79-2.82-1.35-4.19-2.12-2.41-1.35-4.45-3.13-5.7-5.65-1.1-2.2-.84-4.49-.06-6.7.61-1.73,2.25-1.99,3.8-2.34.51-.11.99-.31,1.48-.49,4.69-1.71,6.14-5,4.19-9.65-.4-.95-1.05-1.79-1.61-2.66-1.14-1.75-2.23-3.52-3.46-5.2-2.09-2.85-4.22-5.68-6.42-8.45-2.77-3.5-6.36-4.8-10.8-4.06-6.62,1.11-13.32.79-20,.73-7.99-.07-12.45-5.31-11.42-13.2.62-4.77-.35-9.08-3.3-12.99-2.06-2.73-4.48-4.96-7.48-6.53-5.27-2.76-10.57-5.45-15.88-8.13-5.44-2.76-10.78-8.2-9.14-16.75.06-.31.11-.62.15-.93.81-7.16-.38-14.15-1.96-21.09-.16-.69-.55-1.35-.92-1.98-2.66-4.49-7.07-6.63-11.62-8.52-3.55-1.48-7.23-2.67-10.75-4.22-3.12-1.37-3.78-2.77-3.5-6.22.08-.96.27-1.9.44-3.07-4.13,3.76-4.48,8.74-1.18,12.54,1.6,1.85,3.41,3.32,5.72,4.23,1.94.77,3.78,1.78,5.68,2.64,2.55,1.14,4.52,2.89,6.11,5.2,2.78,4.06,4.46,8.5,4.67,13.42.19,4.34.73,8.84-3.05,12.22-.15.13-.19.37-.3.55-1.89,3.15-1.75,3.43.84,6.06,2.57,2.6,4.87,5.33,5.02,9.38.21,5.56,3.2,9.53,7.94,12.3,3.44,2.01,7.15,2.75,11.1,2.7,1.44-.02,3.03-.04,4.3.51,2.67,1.16,5.16,2.71,7.75,4.07,1.16.61,1.54,1.53,1.53,2.81-.02,3.02-.82,5.74-2.62,8.19-.51.7-1.13,1.68-1.01,2.42.44,2.65,1.07,5.3,2.77,7.76,3.14-.68,6.18-.17,9.11,1.1,1.24.54,2.15,1.29,1.83,2.85-.61,2.98.46,5.4,2.16,7.84,2.77,3.99,5.08,4.97,9.84,3.7,2.73-.72,4.88-2.28,6.92-4.12,5.4-4.87,11.85-3.38,15.63-.98,1.26.8,2.36,1.86,2.31,3.5-.18,6.51.81,13.22-3.42,19.02-.61.83-.97,1.85-1.41,2.79-1.86,3.94-.3,6.9,3.96,7.93,3.33.81,6.62,1.85,9.88,2.92,2.61.86,4.31,2.52,3.73,6.28Zm-101.23-108.24c1.51-2.08,2.86-3.92,4.17-5.79.23-.32.36-.76.39-1.16.46-6.92-.2-13.55-4.62-19.33-1.5-1.96-3.2-3.51-5.49-4.49-2.49-1.06-5.02-2.11-7.35-3.48-7.77-4.56-9.59-11.92-3.39-18.7,1.55-1.69,3.23-3.26,4.75-4.97,2.47-2.78,2.14-6.48-.95-8.28-4.08-2.39-6.7-5.72-8.33-10.15-1.32-3.57-1.43-6.87.4-10.21.95-1.74,1.85-3.52,2.91-5.19,3.11-4.9,4.6-10.14,4.41-16.02-.13-3.95-2.17-6.2-5.2-8.24-.79,1.23-1.6,2.21-2.12,3.33-1.53,3.26-1.88,6.69-.13,9.92,2.04,3.75,1.89,6.18-1.47,8.61-1.5,1.09-1.61,2.07-.67,3.36,1.58,2.17.96,4.33-.41,6.08-1.6,2.04-1.82,4.04-1.23,6.41.63,2.54-.31,4.48-2.6,5.78-.77.44-1.45,1.01-2.35,1.65.68.81,1.07,1.43,1.6,1.87,2.18,1.78,4.43,3.47,6.6,5.27.69.58,1.48,1.28,1.74,2.09.72,2.23-.83,4.03-3.24,3.98-2.92-.06-5.85-.27-8.76-.14-2.78.12-3.56,1.22-3.62,4.01-.06,2.53.75,4.55,2.43,6.53,1.58,1.86,3,4.09,3.73,6.4.72,2.3.48,4.88,2.31,6.87.4.44.28,1.4.31,2.12.05,1.36.1,2.72.02,4.07-.14,2.25.93,3.68,2.74,4.88,3.03,2.01,6.04,4.07,8.88,6.35,1.05.84,2,2.25,2.25,3.55,1.01,5.18-.48,8.26-4.83,10.9-.73,2.66.08,4.94,1.64,7.05,1.36,1.84,2.67,3.73,4.08,5.54,1.99,2.55,4.15,4.96,6.04,7.57,2.07,2.86,1.9,5.77-.07,8.68-.64.94-1.23,1.96-1.56,3.04-.67,2.14.37,3.97,2.5,4.65.69.22,1.42.35,2.14.43,2.69.31,5.42.39,8.07.9,4.09.78,8.23,1.51,12.14,2.87,5.3,1.84,6.57,5.04,4.79,10.31-.44,1.3-.86,2.58-.02,3.9.83,1.3,1.61,2.64,2.49,4.1,3.85-.11,7.43,1.39,11.13,2.47,2.8.82,4.74,2.78,6.26,4.94.83,1.18.51,3.18.68,4.81.06.52.05,1.04.05,1.57.02,2.74,1.45,4.61,3.88,5.52,2.68.99,5.49,1.66,8.77,2.62-1.65-4.23-2.82-8.04-4.61-11.52-1.26-2.44-1.97-4.77-1.68-7.45.05-.49-.07-1-.11-1.45-2.33-1.58-4.76-1.66-7.32-1.38-3.03.32-3.36.13-4.42-2.71-.76-2.04-1.31-4.17-1.85-6.29-.38-1.5-.09-2.79,1.19-3.93,1.9-1.69,2.63-3.97,2.43-6.5-.05-.58-.2-1.41-.6-1.68-3.11-2.05-6.16-4.27-10.07-4.58-2.49-.2-5.06-.1-7.44-.71-5.41-1.37-10.02-3.98-12.78-9.22-1.42-2.69-1.68-5.55-2.12-8.43-.48-3.19-2.52-5.22-5.16-7.25-.27.84-.52,1.23-.49,1.6.53,6.42.52,12.89,4.47,18.59,1.77,2.55,3.73,4.34,6.62,5.33,1.46.5,2.94,1.17,4.17,2.09,2.49,1.85,5.32,2.78,8.21,3.72,2.07.68,4.09,1.56,6.02,2.58,5.34,2.82,4.77,10.51,1.39,13.48-.04-.09-.14-.2-.11-.28.3-.99.61-1.98.92-2.97,1.26-4.08-.1-7.56-3.91-9.48-1.66-.84-3.48-1.37-5.24-2.02-1.76-.65-3.58-1.15-5.27-1.95-3.38-1.61-6.68-3.37-10-5.1-.64-.33-1.32-.73-1.76-1.27-2.9-3.6-5.55-7.42-6.16-12.12-.51-3.92-.66-7.89-.75-11.85-.1-4.58,0-4.57-4.27-6.28-.96-.39-1.92-.85-2.76-1.46-.65-.47-1.47-1.15-1.59-1.85-.62-3.73-.99-7.45,1.56-10.77,1.13-1.48,2.16-3.06,3.03-4.7,1.14-2.14.56-4.17-1.57-5.28-2.39-1.25-4.91-2.27-7.39-3.34-2-.86-4.26-1.4-5.46-3.43-3.72-6.29-5.59-12.81-2.21-19.91.4-.84.76-1.74.91-2.64.35-2.18,1.43-3.93,3.06-5.31,1.87-1.59,3.3-3.42,3.82-5.87.02-.09.34-.12.66-.22.93,2.36.22,4.14-1.7,5.65-2.25,1.77-4.22,3.74-4.32,6.9-.01.48-.33.99-.6,1.43-1.82,2.9-2.15,6.12-1.67,9.37.93,6.28,2.99,11.71,10.22,13.31,1.98.44,3.83,1.64,5.61,2.69,3.1,1.82,3.72,4.15,2.04,7.36-.77,1.47-1.58,2.98-2.64,4.25-2.03,2.45-2.38,5.23-2.18,8.23.1,1.48.58,2.61,2.03,3.21,1.92.8,3.81,1.66,5.91,2.58Zm195.61,6.55c-1.25.77-2.34,1.56-3.53,2.15-.97.48-1.33,1.15-1.42,2.19-.15,1.85.46,2.82,2.21,3.88,4.82,2.94,5.28,2.76,4.31,8.64-.27,1.63-.28,3.34-.14,4.99.25,2.92,1.01,3.64,3.98,3.42,4.05-.3,7.6.8,10.92,3.04,1.79,1.21,2.67,2.69,2.59,4.95-.14,4.04-.17,8.1.07,12.13.36,6.15,5.07,11.09,10.84,13.2,3.22,1.18,6.43,2.39,9.59,3.73,2.3.97,2.97,2.54,2.42,5.08-.35,1.63-.73,3.25-1.13,4.87-1.45,5.93.24,11.12,3.8,15.83,1.32,1.75,2.72,3.44,4.18,5.07,2.01,2.26,3.9,4.68,6.2,6.6,4.48,3.74,9.2,7.19,13.84,10.74.29.22.7.3,1.28.53.55-5.05.02-9.76-1.34-14.36-.65-2.21-1.21-2.35-3.71-2.46-2.7-.11-5.4-.33-8.09-.61-2.87-.3-4.93-1.91-6.71-4.14-2.35-2.93-2.42-6.26-2.47-9.76-.05-3.22,1.02-5.69,3.61-7.5,2.87-2.01,5.78-3.97,8.89-6.09.16-2.94-.82-5.89-2.25-8.68-.95-1.86-2.5-3.02-4.78-2.89-2.17.13-4.34.2-6.51.24-3.53.06-7.05.14-10.58.06-2.62-.06-4.45-1.3-5.51-3.86-1.17-2.84-1.22-5.67-.55-8.57.88-3.85,2.06-7.65,1.78-11.68-.32-4.63-.95-9.19-4.31-12.75-2.14-2.27-4.54-4.28-6.76-6.47-1.7-1.66-3.68-2.71-6.01-3.09-5.99-.98-11-3.7-14.69-8.43Zm-126.07,118.45c.76-3.62-.7-6.08-3.44-7.87-1.65-1.08-3.4-2.04-5.19-2.88-2.59-1.2-3.97-3.23-4.66-5.9-.84-3.24-.33-4.66,2.63-6.13,2.14-1.06,4.4-1.89,6.59-2.84,1.56-.68,3.22-1.54,3.37-3.37.15-1.82.01-3.77-.53-5.51-1.48-4.79-5.01-7.48-9.76-8.79-3.81-1.05-7.61-2.16-11.37-3.38-3.68-1.2-5.78-4.14-5.88-7.98-.05-1.87,0-3.74,0-5.77-4.87-3.39-10.17-5.63-15.99-5.65-.99,2.84-1.84,5.27-2.68,7.71-1.62,4.72-.34,7.43,4.34,9.01,1.87.63,3.81,1.06,5.72,1.59,6.14,1.71,9.69,5.78,10.83,12.01,1.1,6.03-.08,7.52-6.19,7.93-1.97.13-3.95.35-5.9.66-1.5.24-2.83.95-3.31,2.51-.51,1.65-.01,3.13,1.39,4.16,1.51,1.1,3.04,2.2,4.66,3.11,4.81,2.69,9.89,4.82,14.25,8.37,3.75,3.07,6.65,6.55,8.31,11.08.23.64.64,1.21,1.09,2.06,3.38-3.07,7.61-3.03,11.72-4.14ZM19.79,434.94c.21-.37.39-.54.39-.7,0-.73.05-1.48-.08-2.19-.86-4.59.69-8.39,3.73-11.74.21-.23.46-.45.59-.72.69-1.37,1.75-2.72,1.89-4.15.1-.95-1.13-2.03-1.77-3.04-.17-.27-.36-.51-.51-.79-1.26-2.28-.91-4.14,1.24-5.7,3.19-2.3,6.65-3.99,10.73-3.61,2.79.26,5.56.68,8.34,1.05,2.38.32,3.57-.2,4.48-2.36.43-1.02.56-2.21.64-3.34.1-1.56-.06-3.14.04-4.7.14-2.45,1.56-3.75,4.04-3.79.93-.01,1.87.2,2.81.18.71-.01,1.51-.05,2.11-.37,2.78-1.48,4.58-6.29,4.03-9.44-.76-4.4-1.16-8.86-1.77-13.28-.32-2.36.46-4.09,2.65-5.1,3.1-1.43,4.16-3.92,3.7-7.16-.16-1.12-.49-2.22-.69-3.34-.36-1.94-.73-3.88-.99-5.83-.2-1.5.54-2.6,1.76-3.43,1.68-1.14,3.5-1.72,5.56-1.84,2.51-.13,3.34-1.01,3.67-3.43.22-1.59.13-3.13-1.17-4.34-1.17-1.09-1.4-2.5-1.33-4.02.04-1,0-1.99,0-3.39-2.27,1.37-4.08,2.53-5.97,3.58-2.64,1.47-5.41,2.72-7.98,4.29-3.25,1.99-5.58,4.91-5.91,8.75-.31,3.51-.41,7.18.23,10.62.99,5.3.78,10.59,1.05,15.89.26,5.21-.87,10.17-2.16,15.11-.36,1.38-.93,2.94-1.92,3.88-4.59,4.35-9.38,8.21-16.46,7.48-5.83-.59-11.44.8-16.53,3.78-1.38.81-2.77,1.98-3.59,3.33-3.24,5.3-5.94,10.82-5.19,17.34.07.62.03,1.25,0,1.88-.15,2.86.88,5.33,2.54,7.56,2.13,2.86,5.07,4.81,7.79,7.06ZM408.2,171.52c-1.51-1.38-2.56-2.35-3.63-3.31-2.87-2.57-5.8-5.07-8.6-7.72-3.24-3.07-3.7-6.85-2.39-10.95,1.39-4.34.67-8.52-1.23-12.45-1.53-3.18-3.29-6.34-5.46-9.11-3.76-4.78-7.87-9.32-14.77-9.23-.72,0-1.45-.16-2.17-.26-6.45-.9-10.79-4.95-12.08-11.37-.51-2.55-.87-5.14-1.29-7.71-.34-2.11-1.08-3.98-2.74-5.46-1.51-1.34-2.46-3.02-2.94-5.05-.24-1.03-.97-2.15-1.82-2.77-1.75-1.28-3.62-2.57-5.64-3.26-3.83-1.31-7.79-2.27-11.72-3.25-2.26-.56-3.68-1.65-4.04-4.11-.24-1.64-.8-3.24-1.36-4.81-1.34-3.72-2.51-7.54-5.69-10.25-3.49-2.95-7.09-5.49-12.08-4.64-2.25.38-4.56.43-6.84.69-.69.08-1.36.37-2.38.67.73.58,1.17,1,1.67,1.32,2.45,1.58,4.93,3.12,7.38,4.71,2.92,1.89,4.58,4.46,4.39,8.09-.11,2.08-.03,4.17-.02,6.26.02,3.47.44,4.18,3.71,5.17,4.25,1.28,8.61,1.3,13.01.86,2.57-.26,5.27-.62,7.75-.13,4.45.87,8.42,3.06,11.76,6.2,1.69,1.59,3.12,3.44,3.36,5.85.56,5.48,1.1,10.94-.37,16.43-1.17,4.36.01,7.06,3.6,8.99,3.42,1.83,7,3.18,10.98,3.3,2.6.08,5.2.36,7.79.66,5.98.7,7.37,1.93,9.04,7.75.14.5.3,1.01.34,1.52.24,3.53.38,7.06.68,10.59.32,3.81-.8,7.2-2.69,10.41-.74,1.26-1.44,2.53-2.15,3.81-1.63,2.95-1.44,3.47,1.76,4.8.77.32,1.54.66,2.34.88,7.9,2.23,15.81,4.45,24.51,6.89Zm-18.45,163.63c-4.2-4.88-8.3-9.44-12.16-14.19-4.07-5-5.28-10.75-3.78-17.05.41-1.72.74-3.46,1.02-5.21.23-1.42-.38-2.4-1.77-2.91-2.93-1.07-5.8-2.38-8.79-3.22-4.16-1.18-6.87-4.21-9.76-7.03-.56-.54-.76-1.46-1.09-2.22-2.22-5.18-1.99-10.63-1.54-16.03.25-3.02-.67-4.9-3.29-6.36-3.16-1.76-6.56-1.87-9.99-2-2.5-.1-3.51-.66-3.88-3.11-.34-2.23-.39-4.56-.13-6.8.51-4.51-.02-5.73-4.13-7.54-.56-.25-1.19-.32-1.76-.47-.84.68-1.56,1.48-2.46,1.94-1.66.85-2.07,2.13-2,3.86.1,2.5.02,5.01.03,7.52,0,6.62,1.1,7.28,6.86,7.09,3-.1,3.67.68,3.7,3.69.01,1.77-.2,3.55-.1,5.32.16,2.81,1.24,5.73,5.12,5.86.93.03,1.88.16,2.79.36,1.53.32,2.44,1.3,2.22,2.89-.18,1.32-.61,2.61-.98,3.9-.7,2.47-.3,3.41,2,4.42.86.38,1.74.7,2.63.98,3.84,1.24,4.72,2.91,3.77,6.85-.36,1.5-.63,3.06-.61,4.59.04,2.04.73,2.78,2.74,2.4,3.2-.6,5.16.84,6.85,3.19.67.93,1.44,1.79,2.11,2.72,1.97,2.74,1.88,4.15-.14,7-.4.57-.67,1.6-.43,2.19,1.36,3.3,3.11,6.37,6.05,8.6,1.33,1.01,2.64,2.05,3.85,3.19,2.11,2,4.51,3.31,7.39,3.8,3.17.54,6.33,1.16,9.67,1.78Zm-231.95-118.33c1.12,2.35,1.86,4.49,3.08,6.3,1.2,1.8,2.81,3.36,4.38,4.87,2.43,2.33,3.62,2.89,5.67,3.11-.26-.4-.49-.74-.71-1.08-5.39-8.31-11.17-16.41-14.5-25.87-1.66-4.71-3.55-9.38-3.99-14.43-.53-5.93-2.49-11.44-5.41-16.51-2.9-5.03-6.37-9.72-9.53-14.61-.41-.63-.5-1.52-.57-2.31-.24-2.87.02-5.86-.7-8.6-1.16-4.42-2.92-8.68-4.48-12.99-.37-1.01-.96-1.94-1.57-3.15-1.06,1.16-1.86,1.97-2.58,2.84-2.1,2.56-2.02,5.14.01,7.88.92,1.24,1.7,2.62,2.35,4.03,1.31,2.84,2.58,5.7,3.71,8.62,2.17,5.59,1.88,10.81-2.51,15.37-1.3,1.35-2.54,2.78-3.65,4.29-2.26,3.08-1.6,5.76,1.74,7.46.65.33,1.33.59,2.01.87,6.13,2.56,12.64,4.31,18.02,8.47.1.08.38-.06.67-.11.46-2.7-.31-5.11-1.74-7.38-.73-1.17-1.71-1.77-3.11-1.69-1.14.07-2.29.12-3.44.14-2.61.04-5.22.17-7.82.03-2.02-.1-2.72-1.03-2.8-3.03-.07-1.79.41-3.28,2.06-4.26.71-.42,1.36-.97,2.03-1.47,2.92-2.18,3.24-3.18,2.09-6.57-.15-.44-.4-.84-.59-1.23.27-.19.39-.31.43-.29,2.55,1.18,3.29,6.15,1.13,7.84-1.4,1.09-2.89,2.06-4.3,3.13-1.09.84-1.74,2.11-1.06,3.28.39.68,1.69,1.12,2.6,1.15,2.17.07,4.38-.04,6.54-.29,5.41-.65,7.62.65,9.28,5.91.43,1.36.38,2.86.56,4.3.29,2.36.45,4.74.92,7.06.69,3.46,1.97,6.83,2.33,10.31.4,3.91.39,7.93-.06,11.83-.61,5.36.92,9.66,5,13.06,1.18.99,2.56,1.77,3.93,2.5,6.06,3.25,12.29,6.23,18.18,9.76,4.32,2.59,7.41,6.66,8.44,11.63.91,4.4,3.26,7.55,6.45,10.39,2.09,1.85,4.29,3.29,7.21,3.32.46,0,.92.45,1.86.95-3.93.95-6.76-.03-9.2-2.26-1.9-1.73-3.7-3.57-5.61-5.41-1.71,6.19,2.14,11.71,8.24,11.87,4.9.13,9.82.12,14.72-.03,3.16-.09,6.3-.55,10.19-.91-2.72-1.5-4.84-2.57-6.85-3.8-5.75-3.54-12.03-6.09-17.33-10.52-8.43-7.06-16.49-14.45-23.42-22.99-1.63-2.01-3.45-3.37-5.85-4.38-5.68-2.41-9.85-6.55-12.41-12.22-.54-1.2-1.07-2.44-.05-4.19Zm208.12,34.96c.19-2.76.27-5.33.56-7.89.24-2.14-.55-3.66-2.3-4.75-2.32-1.44-4.73-2.62-7.5-2.99-.85-.11-1.75-.57-2.44-1.11-3-2.34-3.41-8.26,1.32-9.95,2.91-1.04,3.67-3.06,3.32-5.83-.05-.41-.14-.85-.06-1.25.38-2.06-.65-3.42-2.25-4.43-1.05-.66-2.23-1.12-3.3-1.75-1.7-1-3.5-1.89-5-3.14-3.2-2.66-3.39-4.82-.64-7.99,1.63-1.87,2.24-3.96,2.33-6.3.08-2.34-.81-3.73-3.08-4.48-2.27-.74-4.62-1.23-6.93-1.83-4.58-1.18-6.63-3.79-6.65-8.5-.02-3.34.1-6.68-.03-10.02-.19-4.68-2.92-7.2-7.56-7.18-.8,0-1.61.11-2.49.17-1.28,4.79-2.51,9.44-2.23,14.28.09,1.49.61,3.04,1.3,4.38,2.03,3.96,5.61,6,9.65,7.46,4.94,1.79,8.46,5.15,10.79,9.89,1.59,3.23,1.64,6.62,1.61,10.08-.03,2.84-.77,5.3-2.73,7.43-2.29,2.49-3.84,5.44-4.94,8.63-1.54,4.44-.6,7.37,3.06,10.13,2.8,2.12,5.82,3.57,9.34,4.09,2.72.4,5.21,1.41,7.28,3.35,3.03,2.84,6.54,5.21,8.73,8.89.13.22.46.33.86.6Zm22.63-19.99c-2.53,1.35-4.42,2.75-5.77,4.81-.51.78-1,1.63-1.69,2.24-2.7,2.39-3.88,4.88-1.71,8.39.81,1.31,1.34,2.32,2.95,2.77,2.29.65,4.56,1.52,6.7,2.58,4.55,2.25,6.01,6.63,4.01,11.97-.49,1.31-1.17,2.54-1.98,4.27,1.81,0,3.04-.02,4.27,0,2.6.06,3.05.37,2.83,2.85-.25,2.78-.85,5.53-1.27,8.3-.5,3.28,1.43,5.62,4.75,5.78,3.01.14,4.56,1.52,4.29,4.47-.34,3.6-.08,7.23-1.21,10.82-1.16,3.7-1.06,7.46,2.67,10.07.59.41,1.06,1.01,1.51,1.58,1.51,1.92,3.54,1.98,5.66,1.56,1.81-.36,3.59-.85,5.48-1.3-.27-2.72-.12-5.37,1.56-7.74.45-.63.51-1.57.65-2.39.73-4.4-.25-8.46-2.34-12.34-2.06-3.83-4.31-7.39-8.95-8.5-.69-.16-1.36-.57-1.94-.99-1.67-1.21-3.6-2.23-4.86-3.79-3.27-4.02-3.92-8.62-2.07-13.52.48-1.27.87-2.57,1.29-3.86.79-2.44.97-4.93.27-7.4-.27-.95-.73-2.05-1.46-2.62-2.1-1.63-4.13-3.34-7.1-3.53-3.87-.25-5.51-2.07-5.93-5.97-.29-2.68-.39-5.37-.61-8.49Zm-21.1,24.44c0,.64-.03.95,0,1.25.61,4.76.97,9.49-.47,14.22-.6,1.96-.88,4.08-.92,6.14-.11,6.2,1.91,8.11,8.01,7.81,3.95-.19,7.9-.43,11.85-.67,4.76-.29,7.43,1.42,9.1,5.91.36.98.68,1.97.95,2.98,1.4,5.17,1.26,5.45-3.58,7.88-7.13,3.57-8.67,6.22-8.18,13.97.25,3.92,3.35,7.71,7.21,8.35,2.55.42,5.18.43,7.77.5,3.81.1,5.35,1.14,6.09,4.91.56,2.84.74,5.76,1.03,8.65.13,1.3.11,2.62.15,3.99,2.97.42,4.75-1.43,6.78-2.05-.52-2.44-1.28-4.66-1.39-6.92-.17-3.32-.03-6.67.25-9.98.4-4.65-.73-6.07-5.44-6.19-1.46-.04-2.92,0-4.38,0-2.69,0-4.71-1.52-5.03-4.07-.33-2.68-.27-5.27.72-7.96,2.11-5.78,2.58-11.71-.04-17.42-1.05-.66-2.16-1.32-2.63-2.3-2.06-4.24-5.37-6.74-9.93-7.68-2.45-.5-4.92-.86-7.35-1.44-4.73-1.13-5.72-2.48-5.21-7.24.12-1.06.7-2.16,1.34-3.04.85-1.17,2.04-2.1,2.93-3.24,1.12-1.43.89-2.71-.62-3.73-.76-.51-1.66-.91-2.55-1.15-2.09-.55-4.21-.98-6.47-1.49Zm-58.09-29.34c2.26-2.91,4.26-5.55,6.35-8.12.9-1.11,1.51-2.26,1.29-3.7-.4-2.56-.9-5.11-1.26-7.68-.44-3.06-2.08-5.37-4.27-7.41-2.89-2.7-5.84-5.34-8.53-8.23-1.22-1.31-2.15-3.06-2.69-4.78-.52-1.64-.51-3.5-.46-5.26.2-7.33,1.6-14.52,3.7-21.49.87-2.9,1.51-5.67,1.01-8.54-.55-3.17-1.27-6.38-2.48-9.35-1.96-4.81-5.02-8.66-10.72-9.36-.8-.1-1.56-.54-2.33-.87-2.93-1.26-5.86-2.53-9.21-3.97.77,2.23,2.1,3.3,3.54,4.31,4.48,3.15,8.44,6.84,11.17,11.64,4.38,7.68,5.17,15.34.41,23.35-2.42,4.06-3.24,8.68-1.6,13.5,1.39,4.07,3.3,7.58,7.12,9.91,2.34,1.42,3.27,3.84,2.85,6.49-.57,3.58-.27,7.32-1.9,10.73-.29.61-.31,1.46-.16,2.14.65,3.05,1.17,6.16,2.19,9.09,1.09,3.17,3.01,5.89,6,7.6Zm79.87,2.3c3.84-2.72,5.56-6.44,6.86-10.28,1.57-4.66,1.63-9.34-.86-13.91-3.44-6.32-8.09-11.63-13.12-16.66-.91-.9-2.02-1.6-3.54-2.78,0,2.11-.02,3.45,0,4.8.05,2.76.13,2.88,2.93,3.44,1.78.36,3.4.9,4.67,2.29,3.21,3.5,5.39,7.29,4.53,12.35-.52,3.06-1.39,5.88-3.35,8.3-.28.35-.9.42-1.47.68,1.07-2.68,2.27-5.01,2.9-7.49.63-2.49,1.24-5.33-.2-7.63-2.05-3.3-4.02-6.81-8.73-7.28-2.51-.25-2.95-1.24-3.07-3.94-.08-1.67.06-3.35-.08-5.01-.06-.75-.35-1.69-.88-2.17-3.64-3.28-7.77-3.69-12.49-1.33,1.65,1.11,3.39,2.03,4.81,3.32,1.45,1.31,2.69,2.9,3.82,4.51,3.77,5.36,3.08,11.25-1.68,15.64-.99.91-2,1.89-2.68,3.04-.72,1.22-1.3,2.64-1.5,4.03-.37,2.49.52,3.51,3.01,3.66,2.39.14,4.81-.08,7.2.13,2.58.23,5.18.55,7.67,1.23,2.87.79,5.88,4.61,5.27,8.03-.16.9-.02,1.86-.02,3.04ZM306.06,26.09c.17-.2.35-.39.52-.59-2.27-2.27-4.5-4.58-6.84-6.78-1.53-1.45-3.27-2.48-5.55-2.51-1.81-.03-3.5-.78-4.71-2.18-1.98-2.29-4.5-3.63-7.28-4.67-1.35-.51-2.52-1.46-3.81-2.11-2.64-1.34-4.95-3.61-8.28-3.02-4.2.75-8.51,1.14-12.55,2.4-3.45,1.07-6.83,1.41-10.13.52-5.57-1.5-11.13-1.41-16.77-.93-2.79.23-5.36,1.02-7.61,2.58-1.78,1.24-3.43,2.73-4.94,4.3-4.07,4.22-8.89,6.38-14.81,6.18-4.69-.15-9.4-.19-14.09-.05-7.48.22-14.22,2.22-18.82,8.74-.11.15-.35.21-.41.24-.92-.05-1.72-.09-2.68-.14-.8,1.88-1.55,3.66-2.31,5.44.73-.04,1.12-.31,1.44-.64,4.17-4.34,9.37-6.44,15.23-7.27,5.67-.8,11.37-1.55,16.96-2.76,6.1-1.32,12.09-3.16,18.13-4.74,3.18-.83,6.44-1.14,9.52.17,2.48,1.06,4.58.81,6.79-.61,2.72-1.75,5.56-3.3,8.3-5.01,3.62-2.26,7.57-3.56,11.8-3.77,3.54-.17,7.09-.1,10.63.01,3.66.12,6.94,1.29,9.64,3.89,1.35,1.3,3,1.85,4.86,1.76,2.08-.1,4.16-.28,6.25-.28,3.93-.01,5.09.81,6.47,4.57,1.16,3.15,3.16,4.95,6.69,5.15,2.88.16,5.9.02,8.36,2.13Zm-21.93-1.86c-.57-.35-.73-.52-.92-.56-3.8-.9-6.74-2.95-9.26-5.99-3.64-4.39-9.34-4.78-13.49-.97-2.8,2.57-5.87,3.1-9.26,2.03-2.31-.73-4.51-.7-6.74.02-6.34,2.04-12.69,3.9-18.31,7.82-4.56,3.18-9.95,4.76-15.47,3.01-5.94-1.89-11.95-1.62-17.98-1.57-1.45.01-3.02-.05-4.56,1.36,1.35,0,2.29-.01,3.22,0,2.44.03,4.63.92,5.96,2.9,1.31,1.95,2.96,2.26,5.05,2.37,5.46.29,10.8-.27,16.17-1.22,3.45-.61,6.69-1.4,9.62-3.39,6.52-4.43,13.92-5.28,21.55-5.13,2.23.05,4.1.86,5.5,2.55,3.41,4.09,7.87,4.98,12.72,3.95,5.75-1.23,10.98-3.82,16.2-7.17Zm155.1,338.26c.2-.08.4-.16.59-.24-.31-2.94.49-5.6,1.97-8.08.32-.53.55-1.13.78-1.71,1.34-3.43.57-5.48-2.57-7.27-2.43-1.39-4.88-1.35-7.5-.67-1.79.47-3.7.94-5.5.8-5.69-.44-10.11-4.63-6.28-11.31,1.55-2.71,3.2-5.36,4.62-8.14,1.42-2.78.65-5.54-.88-8-1.27-2.06-3.25-3.32-5.78-2.87-2.07.36-4.09,1.05-5.74,1.48.29,1.88.7,3.27.69,4.66-.02,3.12-.28,6.24-.38,9.36-.14,4.56,1.2,8.71,4.21,12.11,2.69,3.03,5.71,5.79,10.06,6.28.17.02.29.42.51.76-2.46,1.27-4.39-.42-6.48-1.03-.08.55-.16.85-.16,1.16-.07,3.71.57,4.41,4.25,4.5,1.35.03,2.71-.14,4.07-.11,3.35.09,6.09,1.22,7.56,4.52.58,1.3,1.3,2.53,1.96,3.8ZM156.78,151.98c.48.69.81,1.16,1.3,1.85-2.97-.32-5.65-1.6-7.93.84-.33.35-1.22.1-1.82.27-2.19.64-4.45,1.12-6.51,2.06-2.15.98-2.49,1.96-1.3,4,1.95,3.31,4.15,6.48,6.38,9.62.94,1.32,2.41,1.44,3.97.96,2.25-.69,3.49-2.51,4.97-4.11,6.2-6.69,13.85-8.32,22.5-6.33.67.15,1.34.28,2.58.53-.4-1.58-.55-2.79-1.01-3.86-1.53-3.62-4.69-5.44-8.02-7.06-1.28-.62-2.54-1.28-3.76-2.01-1.34-.8-3.1-1.24-4.69-1.04q3.22,1.61,3.47,3.42c-1.43-.66-2.86-1.33-4.3-2,.61,1.44,2.06,2.25,1.26,4.1-.74-.48-1.79-1.42-2-1.26-1.66,1.25-3.17-.63-5.08.04ZM271.51,13.31c-2.33-1.98-2.95-2.4-5.05-2.58-3.42-.29-6.86-.63-10.29-.6-5.07.04-9.91,1.16-14.29,3.93-2.9,1.84-5.92,3.5-8.85,5.29-2.01,1.23-4.17,1.64-6.26.61-2.93-1.45-5.92-1.27-8.86-.59-4.46,1.02-8.84,2.39-13.27,3.57-2.01.54-4.03,1.08-6.08,1.43-6.47,1.11-12.95,2.13-19.43,3.19-4.8.79-8.77,3.14-12.2,6.53-1.01,1-2.2,1.82-3.21,2.81-.36.35-.42,1-.73,1.8.64-.2.95-.22,1.18-.37,7.05-4.55,14.56-8.12,22.62-10.45,7.48-2.17,15.02-1.99,22.51.01,3.62.97,7.19,1.35,10.7-.28,2.54-1.18,5.01-2.51,7.53-3.76,2.7-1.33,5.36-2.73,8.12-3.92,2.1-.9,4.3-1.59,6.49-2.25,3.11-.94,6.15-1.55,9.48-.44,2.73.91,5.55.64,7.75-1.82,2.32-2.6,5.51-2.69,8.68-2.61,1.09.03,2.16.29,3.45.48Zm-74.71,285.94c.96.76,1.84,1.65,2.89,2.27,2.27,1.33,4.52,2.5,7.32,1.02.99-.52,2.46-.35,3.67-.19,1.54.2,2.03,1.17,1.63,2.74-.13.5-.45.95-.59,1.45-.49,1.76.25,4.21,1.47,5.02,2.47,1.65,4.93,3.31,7.48,5.02,2.55-4.49,5.72-8.96,5.01-14.84-.19-1.54.05-3.13.05-4.69-.01-3.06-.86-4.27-3.71-5.41-4.14-1.65-7.79-.69-10.96,2.22-3.98,3.64-8.56,5.45-14.25,5.39Zm12.62,25c-2.47,1.2-4.77,2.35-7.1,3.46-.94.45-1.95.75-2.88,1.2-2.61,1.27-2.95,2.12-2.28,4.96.43,1.84,1.36,3.21,3.13,4.02,1.32.61,2.55,1.42,3.85,2.09,3.99,2.08,6.44,5.19,6.7,9.82,0,.14.27.26.53.49,3.48-.8,6.32-2.45,7.38-6.22,1.13-4.03.82-8.05-.55-11.96-.32-.92-1.08-1.8-1.85-2.44-2.31-1.92-4.72-3.72-6.92-5.42Zm150.98-109.07c0,.99,0,2.03,0,3.06-.05,6.93.62,5.64-4.65,8.54-1.76.97-2.23,2.3-2.02,4.13.22,1.89,1.29,3.22,3.03,3.56,3.94.77,7.45,2.42,10.68,4.98.18-.56.31-.84.35-1.12.51-4.21,1.44-5.15,5.61-5.64.41-.05.83-.11,1.25-.11,2.43.01,4.32-1.14,6.28-2.77-.59-1.2-.94-2.47-1.72-3.36-2.63-3-5.69-5.47-9.45-7.02-3.04-1.25-6-2.71-9.36-4.24Zm7.63,26.92c0,3.56-.16,6.66.05,9.73.17,2.51.91,3,3.46,3.62,1.51.37,3,.85,4.49,1.31,3.88,1.2,4.5,4.92,1.6,7.83-.81.81-1.75,1.51-2.42,2.42-2.12,2.85-.93,6.53,2.42,7.37,2.52.63,5.08,1.12,7.64,1.56,2.95.51,5.6,1.53,7.77,3.67.47.47,1.1.78,2.04,1.42.22-1.47.37-2.54.55-3.71-.84-.14-1.45-.18-2.03-.35-5.61-1.64-6.9-2.18-5.13-8.8.4-1.48.53-3.05.68-4.59.18-1.86-.59-3.27-2.31-4.04-1.42-.64-2.84-1.36-4.33-1.72-2.71-.65-4.14-2.16-4.22-4.98-.02-.7-.09-1.8-.51-2.02-2.11-1.14-1.47-3.27-1.98-4.99-2.37-1.14-4.7-2.26-7.77-3.73ZM128.93,96.76c-.68-.08-.89-.17-1.07-.12-.29.08-.58.22-.84.38-3.07,1.87-4.06,4.8-4.42,8.18-.23,2.13,0,3.89,1.85,5.26,2.3,1.7,3.06,4.1,2.89,6.89-.08,1.35-.05,2.71-.01,4.07.09,2.96-.29,5.82-1.69,8.48-1.74,3.31-3.38,6.68-5.26,9.91-1.67,2.87-1.54,5.66-.52,8.66,1.42,4.14,3.84,7.39,7.73,9.44,2.32,1.22,3.24,3.08,3.08,5.64-.06.92.08,1.85.15,3.24,1.95-3.43,2.05-7.55.57-11.01-.9-2.11-1.69-4.27-2.72-6.31-1.21-2.4-2.5-4.78-3.97-7.02-1.63-2.49-1.47-6.27.44-8.65,1.68-2.1,3.44-4.22,4.71-6.57,2.3-4.23,2.44-8.96,2.47-13.67.01-2.6-.91-4.58-3.07-6.12-2.73-1.94-3.23-3.92-1.99-7.05.46-1.15,1.04-2.24,1.69-3.62Zm68.58,268.84c-.73,3.12-1.23,5.66-1.91,8.14-1.24,4.52-3.69,8.09-8.04,10.22-4.57,2.24-9.33,1.96-14.06.97-3.3-.69-6.44-.53-9.51.66-2.35.91-2.84,2.84-1.11,4.65,2.01,2.11,4.5,3.56,7.63,4.49-.11-.88-.2-1.47-.26-2.06-.25-2.25.17-3.07,2.36-3.69,1.38-.39,2.87-.52,4.31-.55,1.66-.04,3.33.15,5,.24,2.76.15,5.41-.3,7.81-1.73,3.49-2.09,6.97-4.19,10.38-6.39,3.46-2.24,3.75-5.86,4.25-9.63-2,.07-3.1,2.37-5.12,1.27,1.46-1.12,2.73-2.1,4.53-3.48-2.27-1.13-3.99-1.98-6.25-3.11ZM263.13,3.36c-3.63,0-6.77-.18-9.87.05-2.69.2-5.15-.03-7.55-1.36-.86-.48-2-.56-3.03-.63-6.57-.44-12.87.5-18.76,3.67-4.26,2.29-8.72,4.12-13.7,3.72-4.63-.38-8.24,1.43-11.54,4.5-1.47,1.37-3.47,2.18-5.23,3.25-.3.18-.58.4-1.41.98,5.47,0,10.25.01,15.02-.02.51,0,1.01-.22,1.52-.34,3.95-.91,6.88-3.36,9.5-6.28,2.59-2.88,5.74-5.08,9.49-5.74,6.17-1.08,12.38-1.43,18.62.18,2.65.68,5.6.78,8.33.46,2.74-.32,5.38-1.49,8.6-2.46Zm-93.37,433.26c-.22-1.33-.41-2.63-.64-3.92-.95-5.29-1.33-10.49.83-15.66.81-1.93,1.34-4.09.9-6.39-3.06.07-5.62.85-7.92,2.75-3.32,2.74-5.07,6.4-5.97,10.38-.75,3.32-.63,6.84,2.87,8.85,2.78,1.6,5.77,2.83,8.69,4.18.22.1.58-.08,1.25-.19Zm241.75-202.4c-.44,2.35-.9,5.55-1.66,8.67-1.01,4.12.22,7.63,2.56,10.87.57.79,1.5,1.52,2.41,1.85,2.75.97,5.53,2.03,8.39,2.48,3.27.51,6.32,1.22,8.79,3.65.94-1.81,1.86-3.42,2.63-5.1.59-1.28.81-2.61-.57-3.65-3.98-2.97-8.06-5.36-13.42-5.04-5.13.3-8.22-2.65-8.82-7.74-.27-2.27-.25-4.58-.31-5.98Zm-273.41,28.25c1.66,3.21,2.82,5.88,4.37,8.3.86,1.34,2.27,2.41,3.6,3.35,3.86,2.72,8.37,2.73,12.9,2.95.39-1.2.74-2.27,1.08-3.35,1.27-4.01.53-5.87-3.27-7.45-5.72-2.38-11.84-2.87-18.69-3.8Zm82.34,60.07c-.84.58-1.41,1.02-2.04,1.38-3.15,1.83-3.27,2.63-.76,5.32.35.37.76.72,1.2.98,2.1,1.25,3.15,3.3,4.05,5.41,1.14,2.7,2.05,3.43,4.73,3.35,1.85-.05,2.91-1.03,3.14-2.79.24-1.78-.86-2.38-2.29-2.76-1.51-.4-3.06-.73-4.5-1.31-1.79-.72-2.05-1.56-1.31-3.84,1.18,2.79,3.67,2.93,5.93,3.57,3.87,1.11,4.3,1.86,3.64,5.8-.03.17.12.36.18.55,2.23,0,3.64-.69,4.96-2.44,2.32-3.09,1.78-5.47-1.82-6.85-2.61-1-5.32-1.78-8.05-2.39-2.72-.6-5.26-1.33-7.07-4ZM314.49,35.76c-1.09-1.4-1.9-2.75-3-3.79-1.43-1.35-3.08-2.48-4.65-3.68-2.43-1.85-4.86-3.17-8.24-2.89-4.67.39-7.16-1.58-8.88-5.86-.12-.29-.2-.59-.29-.89-.65-2.09-2.11-2.96-4.25-2.94-3.35.03-6.69,0-10.31,0,2.08,3.76,4.91,5.64,8.56,6.46,1.82.41,3.59,1.07,5.38,1.61,3.3,1,6.1,2.75,8.02,5.64,1.56,2.34,3.75,3.56,6.39,4.11,3.64.76,7.3,1.44,11.27,2.21Zm58.79,183.05c2.43,2.1,4.56,3.7,6.38,5.6,1.1,1.15,1.9,2.69,2.5,4.19.6,1.49.16,2.72-1.5,3.56-2.15,1.1-4.27,2.11-6.75,2.11-.62,0-1.24.13-1.86.22-1.4.2-2.39,1.06-2.55,2.37-.17,1.46-.77,3.16.86,4.3,1.77,1.24,3.63,2.27,5.7,2.47,2.48-4.98,5.55-9.2,10.03-12.24,1.16-.79,1.76-1.7,1.56-3.11-.1-.72-.22-1.45-.19-2.17.18-4.18-3.27-6.95-6.73-7.28-2.32-.22-4.68-.04-7.48-.04Zm-95.1-103.29c.39-.3.66-.45.85-.67,4.29-4.75,4.16-10.47,3.3-16.22-.41-2.76-3.05-4.55-5.88-4.56-5.81-.02-11.62,0-17.43,0,1.01.93,2.17,1.28,3.29,1.74,2.76,1.15,5.68,2.07,8.21,3.63,2.84,1.74,5.25,4.19,6.09,7.62.65,2.69,1.02,5.45,1.57,8.47Zm-24.94-22.1c.25-.14.38-.17.42-.24.04-.06,0-.2-.05-.27-1.38-1.8-3.03-3.45-4.1-5.41-3.14-5.75-6.06-11.63-9.07-17.45-.29-.55-.57-1.12-.93-1.63-1.96-2.81-7.01-2.86-9.46.03.9,0,1.7,0,2.5,0,1.28-.02,2.16.52,2.7,1.71,1.55,3.4,3.39,6.69,4.66,10.19,2.02,5.55,6.34,8.88,10.85,12.1.73.52,1.72.69,2.47.98Zm88.51,81.81c5.84,1.44,10.59,5.37,16.54,6.51,0-2.53.13-4.71-.04-6.87-.16-1.96-.87-2.52-2.81-2.64-1.25-.08-2.5-.02-3.75-.04-3.74-.05-5.46-1.31-6.65-4.91-.35-1.05-.63-2.11-1.07-3.61-2.38,3.76-2.59,7.41-2.22,11.57ZM203.62,7.66c-3.07.42-5.99.64-8.82,1.27-3.96.87-7.91,1.89-11.77,3.12-3.97,1.26-6.76,4.07-9.28,7.51,3.04-.88,5.66-1.78,8.35-2.37,1.61-.35,3.34-.13,4.99-.34,3.65-.48,7.09-1.62,10.05-3.88,2.14-1.64,4.18-3.41,6.49-5.3Zm5.17,344.61c-2.79.6-5.16.99-7.44,1.65-1.59.46-3.4,1.19-3.68,3.01-.32,2.03-.54,4.33.14,6.16.45,1.22,2.54,1.85,3.94,2.68.88.52,1.83.93,2.81,1.41,3.71-4.23,4.12-9.24,4.25-14.9Zm199.25-36.88c.14-.26.28-.52.43-.79-1.28-1.31-2.64-2.55-3.83-3.95-.71-.84-1.6-1.9-1.62-2.87-.04-2.89.31-5.78.52-8.67.21-2.99.62-5.98.59-8.97-.03-2.6-.56-2.79-3.42-2.1-.02.28-.11.59-.07.88.79,6.03,1.04,11.97-1.34,17.82-.69,1.71-.57,3.87-.41,5.79.15,1.78,1.7,2.83,3.53,2.86,1.87.03,3.74,0,5.61,0Zm-78.08-82.2c1.19-.8,2.14-1.2,2.73-1.9,1.04-1.24.92-4.23.05-5.62-.77-1.23-1.56-2.45-2.17-3.76-1.46-3.11-2.79-6.29-4.22-9.41-.24-.53-.67-1.1-1.17-1.36-1.45-.76-2.98-1.38-4.64-2.13-.47,2.87-.16,5.37,1.77,7.41,4.32,4.56,7.82,9.49,7.66,16.76Zm-116.28,91.93c.89-.65,1.77-1.36,2.72-1.96,2.96-1.85,3.24-4.59.72-7.06-1.51-1.48-3.23-2.53-5.25-3.06-3.38,5.52-2.77,9.55,1.81,12.07Zm-37.12-163.02c-1.81-.11-3.54-.32-5.26-.28-.57.01-1.62.7-1.6,1.01.05.7.5,1.54,1.05,1.99.62.5,1.54.64,2.57,1.02-3.83,1.67-5.35.81-5.96-3.03-2.84.49-3.66.76-3.59,1.69.09,1.16.44,2.48,1.14,3.38,1.66,2.13,5.65,3,8,2.02,2.67-1.11,4.04-3.74,3.65-7.81Zm-15.21,3.13c-1.89,1.48-3.53,2.56-4.92,3.91-1.78,1.73-1.07,5.06,1.28,5.47,3.58.63,7.07.04,10.78-2.46-3.86-1.09-5.71-3.5-7.15-6.92Zm229.67,98.95c2.48-3.61,1.14-8.39-2.96-10.26-1.79-.82-3.64-1.52-5.5-2.18-.73-.26-1.55-.27-2.35-.4-.32,3.42-.02,3.94,2.66,4.84.59.2,1.21.31,1.8.51,3.5,1.21,6.58,2.8,6.14,7.32,0,.05.13.12.2.17Zm-160.79,12.84c-.11.18-.22.37-.33.55,4.43,4.1,8,8.86,11.05,14.09-.99-4.48-2.19-8.84-3.55-13.15-.18-.56-1.2-1.09-1.9-1.18-1.74-.24-3.51-.22-5.27-.31Zm79.16-241.24c-.09.21-.19.41-.28.62,3.34,2.06,6.73,4.05,10.02,6.19,3.31,2.17,5.91,5.37,9.73,7.18.12-3.63-.54-4.75-2.67-4.94-.04.5-.07.99-.1,1.38-5.41-4-9.93-9.02-16.7-10.44Zm153.04,337.95c-4.66-4-5.66-4.67-9.04-3.56.91,2.14,1.82,4.29,2.77,6.53,2.82.7,4.73-.51,6.27-2.97ZM167.47,24.71c-1.08.61-2.23,1.14-3.24,1.85-1.83,1.3-3.48,2.87-3.46,5.29.02,2.79.36,5.58.59,8.77,1.71-5.72,3.38-10.93,6.11-15.91Zm41.63,289.38c1.54-3.09,1.26-5.13-.97-7.21-2.06-1.93-3.07-1.95-5.84-.3,2.2,2.42,4.44,4.89,6.81,7.51ZM144.92,42.22c.11.2.21.4.32.6,2.01-.74,3.97-1.65,6.03-2.17,2.03-.51,4.16-.61,6.29-.89-2.71-4.6-8.45-3.44-12.63,2.47ZM206.2,7.05c8.44.59,14.47-.96,17.8-4.33-6.31.35-11.86,3.17-17.8,4.33Zm-46.64,31.31v-9.22c-2.55,2.36-4.56,4.22-6.44,5.96,2.25,1.14,4.29,2.17,6.44,3.26Zm230.15,232.28c-.36,3.68,2.27,5.28,6.64,4.09v-4.09h-6.64Zm-69.72-64.75c1.34-1.48,2.97-2.76,2.41-5.19-4.16,1.39-4.67,2.49-2.41,5.19Zm-5.01-172.68c2.04,3.08,5.23,4.62,8.36,6.25-2.37-2.64-5.45-4.34-8.36-6.25Zm-119.7,267.12c1.27,3.67,1.95,4.13,5.33,3.93-1.71-1.26-3.25-2.4-5.33-3.93Zm-17.03-133.15c1.93-.41,2.53-1.5,2.33-3.12-.14-1.1-.84-1.27-1.92-.85-.13,1.23-.25,2.5-.4,3.97Zm49.85-99.21c-.11-.17-.21-.34-.32-.51-1.31.84-2.62,1.68-4.15,2.66,2.63,1.02,3.12-1.35,4.46-2.15Zm-113.01,324.23c-2.35.21-2.12,1.36-1.19,2.77.4-.92.79-1.85,1.19-2.77Zm205.67-200.35c-.18.16-.35.32-.53.49.93.8,1.86,1.61,3.07,2.66.29-2.59-1.63-2.35-2.54-3.14Zm-167.48-43.33c-.05-.23-.11-.45-.16-.68-1.05.28-2.3-.3-3.04,1.33,1.07-.22,2.14-.44,3.2-.66Zm57.45,155.65h-2.68q1.6,1.55,2.68,0Zm-83.35-132.82c-.17-.15-.33-.3-.5-.45-.37.41-.74.82-1.11,1.23.16.16.33.32.49.48.37-.42.75-.84,1.12-1.25Zm4.99,90.08c-.05.14-.1.29-.15.43.49.15.98.31,1.47.46.04-.12.08-.23.11-.35-.48-.18-.95-.36-1.43-.55Z"/><path class="cls-1" d="m154.96,371.54c-1.94,2.58-3.76,5.26-5.83,7.72-3.75,4.44-8.8,6.87-14.4,7.4-4.44.42-7.07,2.47-8.8,6.26-.73,1.61-1.83,3.12-2.2,4.8-.72,3.22-.61,6.38,1.8,9.12,2.27,2.58,4.39,5.3,6.48,8.03,3,3.9,3.31,8.49,2.93,13.13-.08.94-.99,2.18-1.85,2.63-2.39,1.24-4.9,2.28-7.46,3.12-3.06,1.01-6.23,1.71-9.34,2.59-2.86.81-4.99,2.57-6.33,5.22-2.77,5.49-3.16,10.93.47,16.23.76,1.12,1.63,2.16,2.49,3.21,2.28,2.78,2.1,6.04,1.64,9.25-.13.9-1.02,1.84-1.8,2.46-1.37,1.1-2.82,2.25-4.43,2.89-5.83,2.33-11.81,4.14-18.21,3.94-1.04-.03-2.09,0-3.13,0-4.59,0-7.8,2.8-8.31,7.47-.25,2.27-.29,4.59-.15,6.88.06,1.06.53,2.3,1.22,3.09,1.44,1.63,3.1,3.08,4.78,4.46,1.44,1.19,3.02,2.24,4.58,3.28,3.71,2.46,5.58,6.11,6.65,10.26.67,2.62.25,4.92-1.99,6.76-2.42,1.98-4.59,4.28-7.13,6.07-1.65,1.16-3.71,1.92-5.7,2.39-3.95.93-7.98,1.58-11.99,2.24-2.53.42-4.97.1-7.22-1.34-1.58-1.01-3.29-1.82-4.86-2.84-.69-.45-1.16-1.22-1.73-1.85.13-.18.25-.36.38-.55.55.1,1.17.07,1.64.32,1.94,1.02,3.85,2.1,5.73,3.21,1.88,1.11,3.91,1.49,6.03,1.14,4.11-.68,8.23-1.37,12.31-2.21,1.29-.26,2.64-.8,3.67-1.59,2.48-1.9,4.76-4.05,7.15-6.06,1.94-1.62,2.26-3.68,1.67-5.95-.77-3.01-2.22-5.63-4.76-7.52-2.34-1.75-4.79-3.36-7.06-5.2-1.44-1.17-2.87-2.49-3.87-4.03-.86-1.33-1.48-3.04-1.54-4.61-.1-2.68,0-5.46.6-8.06,1.21-5.21,4.63-7.76,9.92-7.65,5.46.11,10.87-.15,16.05-2,2.34-.83,4.71-1.75,6.79-3.08,3.56-2.28,4.05-6.61,1.56-10.05-1.47-2.02-3.07-4.02-4.13-6.26-3.37-7.14-1.21-19.16,8.7-21.74,3.43-.89,6.84-1.86,10.28-2.73,6.31-1.61,7.46-3.3,6.64-9.69-.41-3.15-2.13-5.61-4.03-7.99-1.76-2.2-3.55-4.37-5.34-6.54-3.27-3.98-2.97-8.3-1.05-12.66.88-1.99,2.15-3.81,3.26-5.7,1.36-2.31,3.4-3.6,6.06-3.96,1.86-.25,3.74-.43,5.54-.91,7.56-1.99,12.04-7.45,15.6-13.97,2.52-4.61,2.19-9.49,1.51-14.35-.39-2.82-1.75-5.38-3.9-7.35-2.37-2.18-4.85-4.25-7.3-6.36-1.03-.88-2.06-1.77-3.13-2.59-3.99-3.07-4.65-7.19-3.73-11.8.69-3.42,1.83-6.64,4.25-9.28.21-.23.36-.52.56-.76,5.53-6.51,6.97-14.07,5.59-22.29-.25-1.49-1.03-2.91-1.71-4.3-.45-.91-1.16-1.7-1.83-2.64,1.3-.78,2.09-.13,2.72.7,1.46,1.94,2.66,4.02,2.75,6.53.12,3.34.25,6.67.27,10.01.02,2.82-1.33,5.24-2.67,7.58-1.34,2.35-2.85,4.62-4.51,6.76-2.98,3.85-3.94,8.24-3.64,12.94.07,1.13.76,2.44,1.57,3.25,1.84,1.83,3.89,3.47,5.94,5.07,3.31,2.58,6.67,5.19,8.59,8.97,3.29,6.45,3.53,13.16.88,19.95-.15.38-.18.8-.27,1.21,0,0,.05-.08.05-.08Z"/><path class="cls-1" d="m195.29,129.04c-.2-1.48-.4-2.96-.6-4.45-.16-.02-.32-.04-.48-.06-.27,1.98-.53,3.96-.83,6.19-.65-.17-1.2-.31-1.97-.5.1.76.19,1.44.28,2.12-.96.9-2.3-.37-2.69-2.55-.04-.2-.1-.4-.16-.64-.52-.05-1.05-.09-1.73-.15-.72.6.74,3.18,3.69,5.74-2.54-.42-3.73-1.76-4.22-3.57-.46-1.71-1.03-3.44.89-5.05,1.86-1.55,3.23-3.7,4.85-5.56.4-.46.92-1.13,1.4-1.15,2.28-.08,3.57-1.27,4.47-3.24.3-.65.8-1.53,1.96-.83.23.14,1.01-.49,1.46-.86,1.79-1.44,3.55-2.9,5.31-4.38,4.04-3.4,8.94-4.41,13.96-4.76,6.76-.47,13.54-.46,20.24.81.27.05.5.29,1.08.64-1.04.32-1.76.65-2.51.77-6.17.96-12.36,1.84-18.52,2.84-1.21.2-2.45.63-3.53,1.22-3.73,2.04-7.43,4.14-11.05,6.36-.92.56-1.53,1.66-2.2,2.57-1.54,2.12-2.08,5.02-4.98,5.87.08-3.04,1.94-5.88,2.82-9.02-2.76,2.64-3.58,6.15-4.34,9.76q-1.16-1.34-.67-5.05c-1.63,2.26-.86,4.73-1.93,6.92Zm8.39-11.28q1.74-1.33,1.78-2.89c-.6.97-1.03,1.67-1.78,2.89Zm-11.57,8.57s.09,0,.13,0v-1.72c-.07,0-.14,0-.21,0,.03.57.05,1.14.08,1.71Z"/><path class="cls-1" d="m209.64,151.23c-.96-4.88.59-8.38,2.62-11.66,1.2-1.93,2.87-3.56,4.38-5.28,3.04-3.46,7.01-5.48,11.48-5.61,4.42-.13,7.69-2.18,10.91-4.7.56-.44,1.13-.87,2.19-1.68-.31,2-1.31,3.03-2.13,4.04-1.29,1.58-2.08,3.24-2.36,5.31-.64,4.81-2.97,8.58-7.38,10.93-1.09.58-1.94,1.63-3.06,2.14-2.16.98-4.37,2.06-6.67,2.49-2.21.41-4.18,1.06-6.07,2.22-1.09.67-2.33,1.09-3.93,1.81Zm8.66-16.4c-2.49,1.92-4.01,4.24-5.62,6.46-.28.38-.22,1.26.03,1.72.98,1.8,2.33,3.25,4.6,3.12,3.36-.19,6.35-1.33,9.27-3.9-5.05-.12-7.7-2.51-8.28-7.41Zm9.6-4.7c-2.39.98-4.62,1.8-6.76,2.83-.44.21-.77,1.21-.72,1.82.28,3.98,2.45,5.68,6.69,5.54,2.12-.07,3.55-1.08,4.4-2.92.91-1.96.7-3.92-.75-5.51-.7-.77-1.84-1.15-2.86-1.76Zm-16.45,14.36c-.49,1.91-.84,3.25-1.19,4.59.2.13.41.26.61.4.98-.77,1.95-1.53,3.04-2.39-.85-.89-1.47-1.55-2.47-2.6Zm21.61-13.26c.38,1.21.7,2.23,1.03,3.26.09-.04.17-.07.26-.11q.69-2.07-1.29-3.16Z"/><path class="cls-1" d="m285.23,373.54c1.13-.43,2.24-.92,3.4-1.27,8.57-2.59,17.38-3.18,26.27-3.22,13.97-.07,27.93-.27,41.9-.34,3.62-.02,7.25.26,10.88.4.03.2.07.4.1.61-.57.17-1.14.48-1.71.49-4.79.12-9.59.23-14.38.25-10.95.04-21.9.06-32.85.01-10.87-.04-21.67.5-32.17,3.66-.37.11-.79.06-1.19.09-.08-.22-.16-.45-.25-.67Z"/><path class="cls-1" d="m292.41,321.67c-.11,2.02.01,4.09-.38,6.06-2.18,10.73-4.31,21.49-7.97,31.84-1.21,3.42-2.96,6.66-4.52,9.95-.22.46-.78.76-1.44,1,7.66-15.46,10.07-32.31,13.6-48.84.24,0,.48,0,.72,0Z"/><path class="cls-1" d="m188.76,206.87c.14-1,.8-1.03,1.61-.93,2.48.31,4.96.65,7.45.83,3.33.24,4.27-.39,5.02-3.67.67-2.9,2.26-4.72,5.23-4.88,2.04-.11,4.2-.09,6.12.48,1.62.48,2.76.38,4.02-.59,2.97-2.26,3.05-2.89,2.1-6.52-.76-2.92-2.21-4.86-5.24-5.49-.58-.12-1.12-.48-1.86-.8,3.23-.6,6.61,1.02,7.6,3.66.62,1.65,1.02,3.39,1.39,5.11.12.56.06,1.34-.25,1.77-1.8,2.52-3.83,4.73-7.33,4.51-2.08-.13-4.16-.21-6.23-.39-2.08-.18-3.36.77-4.06,2.67-.21.59-.47,1.16-.73,1.73-1.3,2.8-2.72,3.65-5.9,3.38-3.01-.26-6-.62-9-.94,0,0,.05.06.05.06Z"/><path class="cls-1" d="m241.03,220.92c-1.56.75-3.06,1.68-4.7,2.23-3.65,1.22-7.38,2.22-11.06,3.35-2.3.71-4.43,1.62-5.98,3.72-2,2.71-5.31,3.27-8.27,4.01-2.74.68-4.63,1.97-6.2,4.27-1,1.47-2.02,3.63-4.39,2.85,1.41-1.58,2.87-3.11,4.2-4.75,1.29-1.58,2.78-2.78,4.76-3.38,3.49-1.05,6.86-2.25,9.56-4.97,2.36-2.38,5.79-2.76,8.81-3.82,4.28-1.5,8.68-2.66,13.03-3.96.07.15.15.3.22.45Z"/><path class="cls-1" d="m152.26,74.46c-1.43,2.28-3.53,3.05-5.81,3.19-1.85.11-3.28.98-4.88,1.77-3.24,1.62-6.61,3.14-10.1,4.03-4.48,1.14-7.9,3.14-9.72,7.81-.1-.59-.42-1.25-.27-1.76,1.03-3.44,3.3-5.71,6.74-6.81,3.37-1.07,7.1-1.57,10.02-3.37,3.65-2.26,7.63-3.03,11.54-4.26.81-.26,1.66-.4,2.49-.6Z"/><path class="cls-1" d="m248.93,376.41c-.27-1.58-.66-3.16-.77-4.75-.16-2.39-.21-4.8-.13-7.19.07-2.28-.75-3.9-2.96-4.56-3.08-.92-6.18-1.75-9.29-2.56-1.39-.36-2.83-.58-4.43-.9.67-1.61,2.01-1.56,2.92-1.29,4.24,1.29,8.91,1.09,12.74,3.84,1.57,1.12,2.47,2.33,2.51,4.33.08,3.64.4,7.28.55,10.92.03.71-.24,1.44-.37,2.16-.26,0-.52,0-.78,0Z"/><path class="cls-1" d="m201.84,229.94c.09-1.14.03-2.32.3-3.41.47-1.89,1.55-3.36,3.4-4.24,2.53-1.2,5.03-2.47,7.53-3.74,4.11-2.09,8.37-2.16,13.27.03-1.48,0-2.56.1-3.62-.02-4.51-.5-8.73-.19-12.08,3.47-.57.62-1.63.96-2.52,1.1-3.48.53-5.3,2.6-5.89,5.95-.05.29-.29.55-.44.82l.05.04Z"/><path class="cls-1" d="m234.65,232.03c-2.01,3.79-5.41,5.9-8.71,7.99-2.62,1.66-5.52,2.93-8.43,4.05-2.69,1.04-5.46.5-8.38-.41.46-.21.66-.39.82-.36,5.55,1.04,10.25-1.03,14.62-4.11,3.07-2.16,6.05-4.44,9.08-6.65.3-.22.66-.34.99-.51Z"/><path class="cls-1" d="m302.53,362.9c2.43-5.15,2.94-10.77,4.07-16.24.53,5.88-.27,11.43-4.07,16.24Z"/><path class="cls-1" d="m186.91,215.21c.78.86,1.54,1.48,1.98,2.27.24.44.18,1.5-.13,1.7-.76.49-1.89,1.09-2.6.85-1.45-.49-1.25-2.34.74-4.82Z"/><path class="cls-1" d="m201.79,229.9v3.29c-.2-.02-.4-.04-.6-.06.22-1.06.43-2.12.65-3.18,0,0-.05-.04-.05-.04Z"/><path class="cls-1" d="m205.38,68.49c-2.26-.19-4.58-.11-6.76-.63-3.03-.72-6.03-1.68-8.89-2.9-5.32-2.27-8.29-2.54-13.73-.6,2.13-2.69,4.91-2.89,7.71-2.72,1.53.1,3.12.48,4.54,1.09,4.81,2.08,9.61,4.02,14.99,3.92.8-.01,1.6.47,2.4.73l-.25,1.11Z"/><path class="cls-1" d="m225.33,132.45c.42,1.31,1.39,2.36,3.96,4.44-1.98.97-4.3.67-5.21-.68-.77-1.15-.43-2.35,1.24-3.77Z"/></g></svg>